<svg width="610" height="643" viewBox="0 0 610 643" fill="none" xmlns="http://www.w3.org/2000/svg">
    <path d="M462.365 179.966L454.131 127.177L454.573 127.144C465.925 126.144 474.815 116.419 474.815 105.021C474.815 92.771 464.842 82.8166 452.605 82.8166C450.932 82.8166 449.259 82.997 447.651 83.3742L447.225 83.4725L447.143 83.0462L438.334 33.8973L585.195 8.37988L585.26 8.78987L609.98 154.843L551.256 164.846L551.206 164.42C549.993 153.137 540.495 144.626 529.127 144.626C516.874 144.626 506.917 154.597 506.917 166.83C506.917 168.552 507.114 170.242 507.491 171.865L507.59 172.291L507.163 172.357L462.365 179.966ZM455.066 127.915L463.038 179.015L506.573 171.603C506.245 170.045 506.08 168.438 506.08 166.798C506.08 154.105 516.415 143.773 529.111 143.773C540.757 143.773 550.501 152.383 551.961 163.862L609.012 154.137L584.506 9.31465L439.269 34.5533L447.864 82.4722C449.406 82.1442 450.997 81.9966 452.589 81.9966C465.285 81.9966 475.619 92.3282 475.619 105.021C475.619 116.698 466.63 126.668 455.066 127.915Z" fill="#373435"/>
    <path d="M503.932 138.607L502.571 127.915L502.636 127.8L527.028 86.654L490.481 56.7087L487.955 46.2296L550.059 35.2256L551.617 46.8199L551.551 46.9347L528.111 86.4572L564.625 116.386L566.561 126.865L503.932 138.607ZM503.424 128.095L504.637 137.64L565.609 126.209L563.87 116.829L527.684 87.1787L503.424 128.095ZM491.219 56.2496L527.455 85.9488L550.748 46.6559L549.353 36.1931L488.956 46.8855L491.219 56.2496Z" fill="black"/>
    <path fill-rule="evenodd" clip-rule="evenodd" d="M528.653 93.4276C529.161 93.4276 529.571 93.0176 529.571 92.5092C529.571 92.0008 529.161 91.5908 528.653 91.5908C528.144 91.5908 527.734 92.0008 527.734 92.5092C527.734 93.0176 528.144 93.4276 528.653 93.4276Z" fill="#A8FF1D"/>
    <path d="M528.653 94.2472C527.701 94.2472 526.914 93.46 526.914 92.5088C526.914 91.5577 527.701 90.7705 528.653 90.7705C529.604 90.7705 530.392 91.5577 530.392 92.5088C530.392 93.46 529.604 94.2472 528.653 94.2472ZM528.554 92.5088L528.653 92.6072C528.702 92.6072 528.751 92.558 528.751 92.5088H528.554Z" fill="#A8FF1D"/>
    <path fill-rule="evenodd" clip-rule="evenodd" d="M526.437 98.8551C527.307 98.8551 527.996 98.15 527.996 97.2972C527.996 96.4444 527.29 95.7393 526.437 95.7393C525.584 95.7393 524.879 96.4444 524.879 97.2972C524.879 98.15 525.584 98.8551 526.437 98.8551Z" fill="#A8FF1D"/>
    <path d="M526.437 99.6748C525.125 99.6748 524.059 98.6088 524.059 97.2969C524.059 95.9849 525.125 94.9189 526.437 94.9189C527.749 94.9189 528.816 95.9849 528.816 97.2969C528.832 98.6088 527.749 99.6748 526.437 99.6748ZM526.437 96.5589C526.027 96.5589 525.699 96.8869 525.699 97.2969C525.699 97.7068 526.027 98.0348 526.437 98.0348C526.847 98.0348 527.175 97.7068 527.175 97.2969C527.192 96.8869 526.847 96.5589 526.437 96.5589Z" fill="#A8FF1D"/>
    <path fill-rule="evenodd" clip-rule="evenodd" d="M531.588 101.348C532.244 101.348 532.785 100.807 532.785 100.151C532.785 99.4953 532.244 98.9541 531.588 98.9541C530.932 98.9541 530.391 99.4953 530.391 100.151C530.391 100.807 530.932 101.348 531.588 101.348Z" fill="#A8FF1D"/>
    <path d="M531.588 102.168C530.473 102.168 529.57 101.266 529.57 100.151C529.57 99.0358 530.473 98.1338 531.588 98.1338C532.703 98.1338 533.606 99.0358 533.606 100.151C533.606 101.25 532.703 102.168 531.588 102.168ZM531.588 99.7737C531.375 99.7737 531.211 99.9377 531.211 100.151C531.211 100.561 531.965 100.561 531.965 100.151C531.965 99.9377 531.801 99.7737 531.588 99.7737Z" fill="#A8FF1D"/>
    <path fill-rule="evenodd" clip-rule="evenodd" d="M502.783 66.2532L527.569 86.5556L542.791 60.8906C529.045 68.1555 521.139 68.9099 502.783 66.2532Z" fill="#A44C98"/>
    <path fill-rule="evenodd" clip-rule="evenodd" d="M542.545 109.875C531.506 108.285 528.766 100.856 511.379 113.844L503.357 127.39L564.001 116.419L552.125 106.677C549.156 108.973 546.22 110.4 542.545 109.875Z" fill="#A44C98"/>
    <path fill-rule="evenodd" clip-rule="evenodd" d="M491.53 57.0367L551.091 46.0328L549.714 35.7012L488.463 46.5411L490.841 56.4792L491.53 57.0367Z" fill="#231F20"/>
    <path d="M491.416 57.4629L490.481 56.6921L487.955 46.213L550.059 35.209L551.551 46.3605L551.158 46.4425L491.416 57.4629ZM491.219 56.2494L491.646 56.5937L550.633 45.7046L549.353 36.1765L488.956 46.8689L491.219 56.2494Z" fill="#373435"/>
    <path fill-rule="evenodd" clip-rule="evenodd" d="M564.001 116.402L503.357 127.39L502.996 128.013L504.276 138.115L566.084 126.537L564.247 116.599L564.001 116.402Z" fill="#231F20"/>
    <path d="M503.932 138.607L502.57 127.914L503.112 127.012L503.292 126.98L564.116 115.976L564.625 116.386L566.56 126.865L503.932 138.607ZM503.423 128.095L504.637 137.639L565.609 126.209L563.87 116.845L503.62 127.75L503.423 128.095Z" fill="#373435"/>
    <path d="M456.333 49.8417L456.23 51.4785L479.774 52.95L479.876 51.3132L456.333 49.8417Z" fill="black"/>
    <path d="M472.556 39.2771L471.947 40.7998L482.06 44.8419L482.669 43.3192L472.556 39.2771Z" fill="black"/>
    <path d="M271.494 208.976L271.38 208.583L231.158 74.6818L366.208 32.8799L366.323 33.2735L379.889 78.1257C381.496 77.7649 383.169 77.5681 384.826 77.5681C397.096 77.5681 407.086 87.5553 407.086 99.8221C407.086 109.039 401.345 117.353 392.749 120.616L407.283 168.65L367.143 180.573L367.045 180.146C364.732 170.487 356.153 163.73 346.196 163.73C334.369 163.73 324.757 173.34 324.757 185.164C324.757 187.624 325.167 190.035 325.987 192.347L326.134 192.757L271.494 208.976ZM232.192 75.223L272.052 207.943L325.117 192.183C324.363 189.92 323.986 187.542 323.986 185.148C323.986 172.881 333.975 162.894 346.245 162.894C356.432 162.894 365.24 169.716 367.783 179.523L406.298 168.093L391.781 120.108L392.142 119.977C400.606 116.927 406.298 108.825 406.298 99.8221C406.298 88.0145 396.686 78.3881 384.859 78.3881C383.137 78.3881 381.414 78.6013 379.741 79.0113L379.364 79.1097L379.249 78.7325L365.683 33.913L232.192 75.223Z" fill="#373435"/>
    <path d="M364.92 12.2116L358.85 28.3955L359.618 28.6834L365.688 12.4995L364.92 12.2116Z" fill="black"/>
    <path d="M346.692 0.000339644L345.875 0.0703125L348.355 29.0418L349.172 28.9718L346.692 0.000339644Z" fill="black"/>
    <path d="M278.892 175.145L249.939 84.5875L251.498 84.0791L279.925 172.996L380.839 133.589L381.43 135.114L278.892 175.145Z" fill="#131924"/>
    <path d="M377.921 140.821L376.543 139.919L379.725 135.016L373.131 134.294L373.311 132.654L382.546 133.687L377.921 140.821Z" fill="black"/>
    <path d="M249.564 93.3285L248.76 93.1809L250.449 83.5381L258.159 90.3766L257.618 90.9834L250.991 85.1288L249.564 93.3285Z" fill="black"/>
    <path d="M279.828 174.095L279.008 174.046L281.075 134.261L298.315 148.037L298.692 87.277L299.414 87.0146L317.277 108.268L321.476 91.1309L344.277 110.449L342.276 55.8394L343.096 55.8066L345.163 112.27L321.969 92.6068L317.704 110.039L299.496 88.3922L299.135 149.726L281.813 135.901L279.828 174.095Z" fill="black"/>
    <path d="M331.999 55.873L278.67 173.746L280.164 174.422L333.493 56.5488L331.999 55.873Z" fill="#7BF5CB"/>
    <path d="M352.307 86.6348L279.119 173.814L279.747 174.342L352.935 87.162L352.307 86.6348Z" fill="#5F7AFF"/>
    <path fill-rule="evenodd" clip-rule="evenodd" d="M350.281 95.592L344.982 90.3115L352.626 86.9004L350.281 95.592Z" fill="#5F7AFF"/>
    <path d="M350.494 96.3791L344.277 90.1802L353.25 86.1787L350.494 96.3791ZM345.704 90.4425L350.068 94.8048L352.003 87.6383L345.704 90.4425Z" fill="#5F7AFF"/>
    <path fill-rule="evenodd" clip-rule="evenodd" d="M333.696 61.9406L327.381 58.3L334.123 53.167L333.696 61.9406Z" fill="#00CCB3"/>
    <path fill-rule="evenodd" clip-rule="evenodd" d="M95.5174 222.704L94.2215 222.868L64.9905 226.574L61.8574 195.497L92.4007 192.004L95.5174 222.704Z" fill="#26C644"/>
    <path fill-rule="evenodd" clip-rule="evenodd" d="M340.159 296.812L293.622 297.008L293.064 250.483H340.717L340.159 296.812Z" fill="#FFA585"/>
    <path d="M563.017 397.356L562.623 397.241L418.748 358.883L418.846 358.489L433.429 302.896C424.883 299.091 419.388 290.629 419.388 281.265C419.388 268.211 430.017 257.601 443.058 257.601C443.796 257.601 444.534 257.633 445.273 257.699L456.46 215.028L508.229 228.836C511.329 219.128 520.548 212.371 530.784 212.371C543.841 212.371 554.454 222.998 554.454 236.035C554.454 237.708 554.274 239.381 553.929 241.021L600.712 253.484L600.614 253.878L563.017 397.356ZM419.749 358.309L562.426 396.339L599.744 254.058L552.978 241.595L553.06 241.201C553.454 239.512 553.65 237.757 553.65 236.019C553.65 223.424 543.398 213.175 530.8 213.175C520.794 213.175 511.789 219.866 508.902 229.443L508.787 229.82L457.05 216.028L445.896 258.584L445.551 258.552C444.731 258.453 443.895 258.42 443.074 258.42C430.477 258.42 420.224 268.67 420.224 281.265C420.224 290.416 425.67 298.681 434.102 302.289L434.43 302.42L419.749 358.309Z" fill="black"/>
    <path d="M541.661 354.587L453.82 331.054L454.034 330.267L541.874 353.8L541.661 354.587Z" fill="black"/>
    <path d="M536.105 278.157L517.469 347.695L534.66 352.3L553.296 282.762L536.105 278.157Z" fill="#47FFD0"/>
    <path d="M504.087 290.849L490.77 340.539L507.96 345.144L521.278 295.453L504.087 290.849Z" fill="#26C644"/>
    <path d="M485.666 253.115L464.146 333.408L481.337 338.013L502.856 257.719L485.666 253.115Z" fill="#FFA585"/>
    <path d="M406.987 314.753C398.917 305.832 391.043 296.205 388.123 286.185C385.22 276.182 387.566 262.275 395.587 258.29C397.785 257.208 399.934 256.798 402.05 257.093C402.558 253.928 403.805 250.467 406.052 247.106C410.563 240.3 420.258 232.1 440.762 231.674L440.779 232.494C420.619 232.904 411.137 240.907 406.725 247.548C404.576 250.795 403.362 254.174 402.886 257.24C404.904 257.7 406.905 258.782 408.907 260.488C411.367 262.587 412.335 265.194 411.515 267.457C410.908 269.13 409.448 270.245 407.791 270.262C407.775 270.262 407.742 270.262 407.725 270.262C405.659 270.262 403.821 268.622 402.673 265.752C401.869 263.718 401.541 260.963 401.919 257.864C399.95 257.585 397.982 257.978 395.931 258.995C388.271 262.8 386.073 276.231 388.894 285.923C391.765 295.795 399.573 305.323 407.578 314.179L406.987 314.753ZM402.772 258.044C402.411 260.996 402.722 263.62 403.461 265.473C404.478 268.031 406.052 269.442 407.791 269.458C409.103 269.442 410.268 268.54 410.76 267.195C411.449 265.26 410.563 262.98 408.382 261.127C406.479 259.504 404.625 258.47 402.772 258.044Z" fill="black"/>
    <path d="M358.497 353.502L345.617 366.738L346.205 367.31L359.084 354.074L358.497 353.502Z" fill="black"/>
    <path d="M73.2437 350.552L72.6445 351.112L88.4617 368.028L89.0608 367.468L73.2437 350.552Z" fill="black"/>
    <path d="M342.588 287.415L318.098 277.543L327.973 252.501L352.84 262.751L352.676 263.128L342.588 287.415ZM319.164 277.1L342.145 286.366L351.758 263.21L328.432 253.6L319.164 277.1Z" fill="black"/>
    <path d="M53.9697 360.034L53.6504 360.789L71.4944 368.329L71.8137 367.574L53.9697 360.034Z" fill="black"/>
    <path fill-rule="evenodd" clip-rule="evenodd" d="M361.353 400.308L396.67 421.266L404.396 379.333L435.3 418.314L475.391 382.646L476.867 442.225L517.695 401.029L491.22 449.588L553.012 450.687L503.359 479.746L535.723 491.144L499.307 513.939L528.374 539.686L484.216 541.539L501.882 602.217L455.903 565.072L434.185 604.431L424.999 556.971L371.278 592.656L376.067 549.624L331.548 571.32L362.092 520.564L311.684 517.629L360.254 497.769L318.311 455.836L381.218 448.112L388.206 447.374L361.353 400.308Z" fill="#FBE59C"/>
    <path d="M352.987 374.774L352.807 373.971L384.81 366.984L384.99 367.788L352.987 374.774Z" fill="black"/>
    <path d="M466.959 588.409L437.875 575.027L331.203 525.911L331.367 525.534L393.717 390.928L440.155 412.493C443.797 403.703 452.245 398.045 461.791 398.045C474.701 398.045 485.199 408.541 485.199 421.447C485.199 425.186 484.297 428.892 482.591 432.188L529.111 453.786L508.705 497.983L508.328 497.802C505.277 496.343 501.996 495.588 498.584 495.588C486.134 495.588 475.997 505.723 475.997 518.17C475.997 527.075 481.262 535.176 489.398 538.801L489.776 538.965L489.595 539.342L466.959 588.409ZM332.286 525.517L466.548 587.326L488.677 539.391C480.459 535.554 475.16 527.272 475.16 518.187C475.16 505.28 485.658 494.785 498.568 494.785C501.964 494.785 505.244 495.49 508.295 496.9L528.012 454.213L481.443 432.582L481.656 432.205C483.428 428.925 484.379 425.219 484.379 421.463C484.379 409.016 474.242 398.881 461.791 398.881C452.441 398.881 444.174 404.506 440.762 413.214L440.598 413.624L394.111 392.043L332.286 525.517Z" fill="#373435"/>
    <path d="M412.155 551.691L412.09 550.871L465.254 546.64L465.319 547.46L412.155 551.691Z" fill="black"/>
    <path d="M477.196 531.935L412.26 537.027L412.324 537.845L477.26 532.752L477.196 531.935Z" fill="black"/>
    <path d="M410.498 512.332L410.449 511.512L462.498 508.38L462.547 509.2L410.498 512.332Z" fill="black"/>
    <path d="M474.813 494.451L409.146 498.826L409.201 499.644L474.867 495.269L474.813 494.451Z" fill="black"/>
    <path d="M407.185 478.861L407.119 478.041L459.725 474.188L459.791 475.007L407.185 478.861Z" fill="black"/>
    <path d="M472.59 459.626L405.639 464.613L405.7 465.431L472.651 460.444L472.59 459.626Z" fill="black"/>
    <path d="M405.707 444.471L405.658 443.651L459.183 439.617L459.248 440.421L405.707 444.471Z" fill="black"/>
    <path d="M470.951 425.438L405.648 430.046L405.706 430.864L471.009 426.256L470.951 425.438Z" fill="black"/>
    <path d="M378.97 521.171L378.773 500.131L400 499.557L400.771 520.794L378.97 521.171ZM379.61 500.918L379.79 520.335L399.934 519.974L399.229 500.393L379.61 500.918Z" fill="black"/>
    <path d="M376.953 484.945L376.756 463.905L397.982 463.331L398.753 484.568L376.953 484.945ZM377.592 464.692L377.773 484.109L397.916 483.748L397.211 464.167L377.592 464.692Z" fill="black"/>
    <path d="M376.788 448.62L376.607 428.744L396.653 428.203L397.374 448.26L376.788 448.62ZM377.444 429.548L377.608 447.784L396.538 447.456L395.882 429.056L377.444 429.548Z" fill="black"/>
    <path d="M397.03 556.184L397.013 555.364L401.212 555.282L400.507 535.701L380.905 536.226L381.036 548.214L380.216 548.231L380.068 535.423L401.294 534.849L402.065 556.086L397.03 556.184Z" fill="black"/>
    <path d="M390.961 551.575L383.383 541.965L384.023 541.457L390.797 550.05L397.506 536.832L398.228 537.209L390.961 551.575Z" fill="black"/>
    <path d="M390.436 517.776L382.365 507.674L383.021 507.166L390.206 516.186L395.832 502.574L396.587 502.886L390.436 517.776Z" fill="black"/>
    <path fill-rule="evenodd" clip-rule="evenodd" d="M369.686 543.196C368.768 528.075 365.979 485.388 364.043 455.951L359.713 465.299L365.274 541.162L369.686 543.196Z" fill="black"/>
    <path d="M370.145 543.852L364.896 541.441L359.318 465.233L363.698 455.787L364.485 455.935C366.569 487.602 369.226 528.436 370.128 543.179L370.145 543.852ZM365.667 540.883L369.226 542.523C368.307 527.501 365.765 488.504 363.731 457.558L360.122 465.348L365.667 540.883Z" fill="#373435"/>
    <path fill-rule="evenodd" clip-rule="evenodd" d="M477.441 564.729C466.254 565.958 444.011 568.369 428.148 570.091L436.924 574.125L474.308 571.534L477.441 564.729Z" fill="black"/>
    <path d="M436.842 574.552L427.984 570.468L428.116 569.681C443.978 567.959 466.221 565.532 477.408 564.318L478.13 564.236L474.587 571.928L474.341 571.944L436.842 574.552ZM429.658 570.337L436.99 573.715L474.029 571.157L476.768 565.22C465.712 566.417 445.06 568.664 429.658 570.337Z" fill="#373435"/>
    <path d="M508.099 497.49L500.504 441.208L501.308 441.109L508.903 497.376L508.099 497.49Z" fill="black"/>
    <path d="M428.45 407.136L384.906 410.38L384.967 411.198L428.511 407.954L428.45 407.136Z" fill="black"/>
    <path fill-rule="evenodd" clip-rule="evenodd" d="M231.06 151.103C243.362 137.869 251.679 134.655 269.46 130.342C276.596 128.62 278.892 125.93 278.203 123.602C276.301 117.124 257.568 119.223 251.663 119.305C259.389 115.943 280.172 114.533 274.545 106.759C272.577 104.037 268.935 104.185 264.014 104.382C258.979 104.578 254.172 104.988 248.726 105.529C251.876 104.136 254.582 102.791 257.223 101.413C260.225 99.8553 274.398 94.1811 265.195 91.4097C262.833 90.7045 258.355 91.5572 254.107 92.656C227.451 99.5273 207.98 121.06 191.347 141.575C189.264 144.576 187.18 147.577 185.097 150.579C182.276 150.579 179.454 150.579 176.633 150.579C141.661 212.027 136.641 267.818 160.902 337.236C140.693 366.788 123.682 398.422 105.721 429.368C68.0418 494.539 30.7731 560.202 0.492188 629.227C4.54385 633.277 8.57911 637.311 12.6308 641.362C31.6424 632.654 50.6541 623.946 69.6494 615.254C69.6494 608.875 69.6494 602.512 69.6494 596.133C72.3395 600.429 75.0461 604.709 77.7363 609.006C84.4781 605.201 91.22 601.413 97.9618 597.609C113.775 557.512 129.604 517.432 145.417 477.336C154.488 457.607 164.347 436.469 173.418 416.74C172.762 413.329 171.892 410.689 171.089 407.36C181.259 449.375 191.609 491.866 201.796 533.897C210.26 569.812 218.724 605.743 227.172 641.657C237.474 641.657 247.775 641.657 258.076 641.657C258.076 636.262 258.076 630.866 258.076 625.471C261.751 630.866 265.442 636.262 269.116 641.657C294.623 641.657 320.131 641.657 345.638 641.657C345.638 637.492 345.638 633.326 345.638 629.145C323.805 609.646 301.989 590.163 280.155 570.664C257.404 496.195 234.652 421.709 211.917 347.24C215.69 341.943 219.463 336.629 223.235 331.332C222.136 329.184 221.021 327.036 219.922 324.904C238.13 356.948 256.649 387.254 276.202 418.511C278.909 416.921 281.599 415.33 284.289 413.723C289.325 418.757 294.345 423.775 299.38 428.81C323.018 448.702 340.914 463.363 366.881 480.124C387.27 491.16 370.883 471.596 366.422 465.692C371.162 468.447 392.897 482.731 397.244 477.992C402.066 472.728 377.871 455.115 373.967 451.999C380.479 454.344 394.176 461.068 400.311 456.673C402.46 455.131 402.575 452.441 397.916 448.62C393.454 444.963 388.55 443.241 383.071 440.421C377.625 438.338 366.569 436.403 368.259 433.238C369.374 431.139 373.475 430.483 375.624 429.942C376.674 427.301 377.707 424.677 378.757 422.037C367.931 421.02 361.008 420.528 355.71 419.544C339.733 416.576 324.478 399.685 314.75 387.09C315.357 386.286 315.981 385.499 316.588 384.696C286.225 336.695 263.637 307.93 226.09 265.341C217.625 251.057 209.161 236.774 200.713 222.49C212.245 187.379 217.199 179.458 240.443 152.054C237.31 151.71 234.193 151.415 231.06 151.103Z" fill="white"/>
    <path d="M346.065 642.051H268.919L258.503 626.783V642.051H226.86L226.778 641.739L201.402 533.979C196.399 513.348 191.363 492.62 186.327 471.875C181.964 453.917 177.601 435.944 173.27 418.052C168.89 427.563 164.347 437.387 159.803 447.194C155.079 457.41 150.338 467.627 145.794 477.499L98.2898 597.887L77.5886 609.547L70.043 597.543V615.5L62.0873 619.141L12.5323 641.854L0 629.308L0.114825 629.046C29.9692 560.972 66.9263 495.637 105.343 429.121C109.608 421.791 113.873 414.296 118.023 407.031C131.31 383.728 145.056 359.637 160.426 337.137C136.313 268.047 141.054 212.174 176.256 150.349L176.37 150.135H184.851L190.986 141.296C207.291 121.191 226.942 99.1827 253.992 92.213C259.667 90.7534 263.26 90.3598 265.294 90.9666C267.459 91.6226 268.558 92.4918 268.64 93.6233C268.821 96.116 263.736 98.7235 258.946 100.987C258.306 101.298 257.765 101.544 257.387 101.741C255.616 102.659 253.533 103.725 251.121 104.857C256.239 104.381 260.094 104.103 263.982 103.955C268.903 103.758 272.757 103.611 274.857 106.513C275.841 107.874 276.12 109.154 275.694 110.334C274.447 113.745 267.426 115.451 260.652 117.107C258.339 117.681 256.108 118.222 254.238 118.796C254.517 118.78 254.812 118.764 255.107 118.747C263.243 118.354 276.858 117.681 278.564 123.487C278.827 124.356 278.696 125.258 278.22 126.094C277.104 128.029 274.103 129.636 269.526 130.751C252.351 134.917 244.002 137.934 231.896 150.791L241.23 151.693L240.721 152.284C217.806 179.277 212.77 186.952 201.123 222.407L226.418 265.095C261.57 304.962 285.241 334.382 316.916 384.433L317.063 384.679L315.243 387.041C329.973 406.048 343.588 416.822 355.759 419.085C359.926 419.856 365.175 420.331 372.425 420.987C374.377 421.168 376.493 421.348 378.773 421.561L379.315 421.611L375.903 430.22L375.706 430.269C375.427 430.335 375.099 430.417 374.754 430.499C372.655 430.975 369.489 431.712 368.603 433.369C368.456 433.648 368.439 433.894 368.554 434.156C369.21 435.73 373.869 437.108 377.97 438.305C379.905 438.879 381.742 439.42 383.202 439.978C384.761 440.781 386.253 441.487 387.68 442.159C391.388 443.914 394.898 445.57 398.162 448.243C400.852 450.457 402.197 452.474 402.132 454.229C402.099 455.278 401.541 456.23 400.541 456.951C395.193 460.789 384.482 456.525 377.395 453.72C377.051 453.589 376.723 453.458 376.395 453.327C382.677 458.165 397.736 469.907 398.261 475.925C398.343 476.844 398.097 477.631 397.539 478.237C393.963 482.124 380.922 474.974 368.636 467.479C368.439 467.365 368.259 467.25 368.078 467.135C368.144 467.217 368.193 467.283 368.259 467.365C373.836 474.548 378.691 481.173 376.92 483.256C376.231 484.059 374.426 484.65 366.684 480.468C340.635 463.675 323.018 449.243 299.101 429.121L284.224 414.247L276.055 419.069L275.841 418.724C254.172 384.105 238.179 357.637 223.383 331.824L212.36 347.321L280.516 570.451L346.048 628.98V642.051H346.065ZM269.346 641.231H345.245V629.325L279.811 570.894L279.778 570.779L211.474 347.157L222.76 331.283L219.561 325.067L220.283 324.674C236.145 352.569 252.909 380.481 276.35 417.921L284.371 413.181L299.676 428.482C323.543 448.555 341.144 462.986 367.11 479.73C374.344 483.649 375.952 483.108 376.296 482.698C377.773 480.96 370.654 471.776 367.603 467.857C367.028 467.102 366.503 466.446 366.093 465.905L366.635 465.298C367.209 465.626 368.045 466.135 369.062 466.774C375.706 470.825 393.34 481.599 396.948 477.68C397.358 477.237 397.523 476.68 397.457 475.991C396.948 470.169 381.316 458.132 375.427 453.606C374.689 453.032 374.098 452.572 373.705 452.261L374.098 451.556C375.132 451.933 376.362 452.408 377.707 452.95C384.629 455.705 395.095 459.854 400.081 456.279C400.885 455.705 401.312 455 401.328 454.196C401.377 452.72 400.098 450.883 397.654 448.866C394.471 446.259 391.01 444.619 387.352 442.897C385.909 442.208 384.416 441.519 382.891 440.716C381.496 440.175 379.675 439.65 377.756 439.076C373.065 437.698 368.636 436.386 367.816 434.451C367.603 433.959 367.635 433.467 367.898 432.959C368.948 430.975 372.212 430.22 374.59 429.679C374.853 429.613 375.083 429.564 375.312 429.515L378.166 422.316C376.1 422.119 374.164 421.955 372.36 421.791C365.076 421.135 359.811 420.659 355.612 419.872C343.194 417.56 329.333 406.605 314.406 387.27L314.209 387.024L316.063 384.614C284.502 334.759 260.881 305.388 225.761 265.554L200.238 222.489L200.303 222.309C211.95 186.837 217.002 178.998 239.606 152.333L230.174 151.415L230.732 150.808C243.297 137.278 251.728 134.195 269.329 129.915C273.61 128.882 276.514 127.357 277.498 125.651C277.875 124.995 277.957 124.339 277.777 123.683C276.251 118.501 262.522 119.174 255.14 119.534C253.746 119.6 252.532 119.665 251.63 119.665L251.466 118.878C253.713 117.911 256.977 117.107 260.438 116.254C266.705 114.729 273.807 112.991 274.906 109.99C275.234 109.072 275.005 108.071 274.168 106.94C272.331 104.398 268.837 104.529 263.998 104.726C259.52 104.906 255.107 105.234 248.726 105.874L248.513 105.086C251.876 103.594 254.681 102.184 256.977 100.987C257.355 100.79 257.896 100.527 258.568 100.216C261.373 98.8875 267.951 95.788 267.804 93.6561C267.754 92.9181 266.787 92.2622 265.031 91.7374C263.178 91.1798 259.618 91.5898 254.172 93.0001C227.369 99.9043 207.832 121.797 191.626 141.772L185.261 150.939H176.83C141.841 212.519 137.183 268.178 161.246 337.039L161.312 337.236L161.197 337.4C145.794 359.932 132.015 384.072 118.712 407.409C114.578 414.657 110.297 422.168 106.032 429.499C67.6809 495.916 30.773 561.153 0.951403 629.095L12.6963 640.837L69.2228 614.959V596.1L69.9773 595.886L77.8674 608.432L97.6337 597.297L145.04 477.172C149.584 467.283 154.324 457.066 159.048 446.849C163.74 436.714 168.448 426.563 172.959 416.756C172.22 413.673 171.466 410.607 170.728 407.523C170.728 407.491 170.711 407.458 170.711 407.441L171.515 407.245C171.81 408.475 172.122 409.606 172.417 410.721C172.942 412.656 173.418 414.477 173.844 416.641L173.877 416.773L173.844 416.838C178.257 435.058 182.702 453.36 187.148 471.661C192.183 492.407 197.219 513.152 202.222 533.782L227.533 641.231H257.699V625.455L258.454 625.225L269.346 641.231Z" fill="black"/>
    <path fill-rule="evenodd" clip-rule="evenodd" d="M83.1992 468.545L129.129 496.883L132.361 490.16L84.1178 466.922C83.8061 467.463 83.5109 468.004 83.1992 468.545Z" fill="#1A1A1A"/>
    <path d="M129.309 497.474L128.915 497.228L82.6406 468.677L83.9529 466.381L84.2974 466.545L132.901 489.963L129.309 497.474ZM83.7561 468.414L128.964 496.31L131.818 490.357L84.2974 467.463L83.7561 468.414Z" fill="#373435"/>
    <path fill-rule="evenodd" clip-rule="evenodd" d="M132.36 490.16L129.129 496.9L136.035 501.148L139.086 493.407L132.36 490.16Z" fill="#1A1A1A"/>
    <path d="M136.231 501.755L128.604 497.048L132.163 489.619L139.61 493.211L136.231 501.755ZM129.653 496.736L135.821 500.541L138.56 493.604L132.54 490.702L129.653 496.736Z" fill="#373435"/>
    <path fill-rule="evenodd" clip-rule="evenodd" d="M244.674 475.827L191.986 493.309L194.726 504.624L245.38 478.271L244.674 475.827Z" fill="#1A1A1A"/>
    <path d="M194.447 505.231L191.494 493.046L191.855 492.931L244.953 475.318L245.855 478.5L245.56 478.647L194.447 505.231ZM192.478 493.587L195.004 504.017L244.888 478.073L244.395 476.368L192.478 493.587Z" fill="#373435"/>
    <path fill-rule="evenodd" clip-rule="evenodd" d="M244.674 475.826L245.379 478.27L251.055 475.318L250.612 473.858L244.674 475.826Z" fill="#1A1A1A"/>
    <path d="M245.117 478.877L244.166 475.564L250.875 473.334L251.548 475.515L245.117 478.877ZM245.183 476.105L245.642 477.68L250.58 475.121L250.35 474.384L245.183 476.105Z" fill="#373435"/>
    <path fill-rule="evenodd" clip-rule="evenodd" d="M314.406 386.533L279.646 416.462L284.305 413.707L289.029 418.43L315.324 387.763C315.127 387.517 314.947 387.271 314.766 387.042C314.635 386.878 314.52 386.697 314.406 386.533Z" fill="#1A1A1A"/>
    <path d="M289.063 419.036L284.257 414.215L279.86 416.806L279.385 416.15L314.488 385.926L315.866 387.779L289.063 419.036ZM284.371 413.181L289.014 417.822L314.8 387.746L314.341 387.139L283.42 413.755L284.371 413.181Z" fill="#373435"/>
    <path fill-rule="evenodd" clip-rule="evenodd" d="M156.982 342.993C176.995 346.978 189.855 348.847 208.211 348.355L207.702 346.584L207.932 346.272C190.692 344.173 177.29 341.32 160.804 337.007C160.821 337.072 160.854 337.138 160.87 337.204C159.574 339.122 158.278 341.057 156.982 342.993Z" fill="#1A1A1A"/>
    <path d="M202.6 348.847C187.148 348.847 174.977 346.994 156.9 343.402L156.293 343.288L156.637 342.779C157.884 340.893 159.147 339.024 160.427 337.154L160.197 336.433L160.919 336.629C176.026 340.582 189.805 343.665 207.98 345.879L208.669 345.961L208.161 346.666L208.768 348.765L208.243 348.781C206.307 348.814 204.437 348.847 202.6 348.847ZM157.671 342.714C177.273 346.617 189.937 348.404 207.685 347.961L207.291 346.6C189.543 344.419 175.961 341.385 161.165 337.515C159.984 339.237 158.819 340.975 157.671 342.714Z" fill="#373435"/>
    <path fill-rule="evenodd" clip-rule="evenodd" d="M207.717 346.585L208.225 348.356C209.538 348.323 210.866 348.274 212.244 348.208L211.949 347.224L212.277 346.765C210.817 346.601 209.374 346.437 207.963 346.257L207.717 346.585Z" fill="#6B809B"/>
    <path d="M207.914 348.782L207.258 346.502L207.734 345.83L207.98 345.863C209.39 346.043 210.834 346.207 212.294 346.371L212.983 346.453L212.376 347.306L212.769 348.602L212.244 348.618C210.867 348.684 209.538 348.716 208.226 348.766L207.914 348.782ZM208.176 346.716L208.521 347.946C209.554 347.913 210.604 347.88 211.67 347.831L211.457 347.158L211.49 347.109C210.374 346.978 209.275 346.847 208.176 346.716Z" fill="#373435"/>
    <path fill-rule="evenodd" clip-rule="evenodd" d="M199.071 145.675L189.623 144.002L185.063 150.562H182.832L206.141 151.66L239.703 152.907C239.752 152.858 239.785 152.808 239.834 152.759L199.071 145.675Z" fill="#1A1A1A"/>
    <path d="M239.901 153.3H239.687L206.126 152.054L182.816 150.955L182.833 150.135H184.85L189.427 143.526L199.121 145.248L240.606 152.431L239.901 153.3ZM185.769 150.283L206.175 151.234L234.947 152.3L189.821 144.445L185.769 150.283Z" fill="#373435"/>
    <path fill-rule="evenodd" clip-rule="evenodd" d="M314.406 386.533C287.849 349.273 263.26 314.589 234.259 279.674C232.028 276.985 229.042 273.443 225.729 269.392C225.466 269.359 225.22 269.31 224.958 269.261C216.969 267.736 210.572 261.733 208.489 253.96L204.289 253.075C202.928 254.009 201.402 254.731 199.795 255.206C198.319 255.649 196.744 255.879 195.12 255.879C189.756 255.879 184.999 253.304 181.997 249.319L178.421 249.221C178.585 249.499 178.766 249.762 178.946 250.024C177.174 252.665 174.468 254.632 171.302 255.452C170.236 255.731 169.137 255.879 167.989 255.879C165.561 255.879 163.297 255.223 161.345 254.091L157.95 255.616C157.95 255.616 157.95 255.616 157.966 255.616C156.883 261.389 152.044 265.833 146.09 266.309C147.172 288.694 152.094 311.948 160.82 336.974C177.306 341.287 190.707 344.14 207.947 346.239L221.382 327.659L219.938 324.855C220.447 325.757 220.955 326.642 221.464 327.544C239.18 358.604 257.207 388.09 276.219 418.462L279.647 416.429L314.406 386.533Z" fill="#131924"/>
    <path fill-rule="evenodd" clip-rule="evenodd" d="M187.673 224.901C189.904 223.769 192.43 223.113 195.12 223.113C196.055 223.113 196.974 223.195 197.876 223.343C197.86 223.031 197.876 222.72 197.893 222.424C198.204 216.832 198.778 211.994 200.238 206.386C200.714 204.533 201.305 202.581 201.993 200.499C207.932 182.722 218.528 168.569 230.207 152.547L206.16 151.661L182.851 150.562H176.617C159.279 181.016 149.305 210.092 146.615 240.119C148.042 240.283 149.404 240.693 150.65 241.284L155.047 240.201C155.768 236.479 158.048 233.33 161.182 231.428C163.166 230.231 165.496 229.542 167.989 229.542C171.745 229.542 175.125 231.1 177.519 233.609C177.339 233.986 177.175 234.38 177.027 234.773L179.619 234.134C181.013 230.116 183.933 226.803 187.673 224.901Z" fill="#131924"/>
    <path fill-rule="evenodd" clip-rule="evenodd" d="M171.104 407.36C171.104 407.343 171.104 407.343 171.104 407.36C171.104 407.343 171.104 407.343 171.104 407.36ZM208.225 348.355C189.87 348.847 177.009 346.977 156.997 342.992C138.478 370.871 122.517 400.406 105.703 429.335C98.4859 441.848 91.2683 454.36 84.1328 466.922L132.375 490.16L171.465 408.704V408.688C172.17 411.41 172.876 413.788 173.45 416.724C173.433 416.756 173.433 416.773 173.417 416.789C179.585 442.225 185.802 467.791 191.986 493.309H192.002L244.69 475.827L208.225 348.355Z" fill="#26C644"/>
    <path fill-rule="evenodd" clip-rule="evenodd" d="M104.917 580.013L2.23096 625.259C1.64043 626.57 1.06631 627.899 0.492188 629.211L12.6308 641.346L69.6494 615.239V596.117L77.7363 608.99L97.9618 597.593L104.917 580.013Z" fill="white"/>
    <path fill-rule="evenodd" clip-rule="evenodd" d="M222.35 621.076L227.189 641.641H258.093V625.455L269.132 641.641H345.655V629.128L339.077 623.257L222.35 621.076Z" fill="white"/>
    <path fill-rule="evenodd" clip-rule="evenodd" d="M104.916 580.012L117.121 549.083L56.3784 516.661C50.8997 526.73 45.5029 536.832 40.2046 546.984C26.7865 572.698 14.0082 598.74 2.23047 625.274L104.916 580.012Z" fill="#131924"/>
    <path fill-rule="evenodd" clip-rule="evenodd" d="M210.539 570.927L222.35 621.076L339.077 623.257L280.172 570.648L272.331 544.967L253.844 552.74L210.539 570.927Z" fill="#131924"/>
    <path d="M110.217 558.765L13.4883 604.809L14.1935 606.289L110.922 560.245L110.217 558.765Z" fill="white"/>
    <path d="M68.73 526.388L29.6797 595.14L31.1061 595.949L70.1565 527.198L68.73 526.388Z" fill="white"/>
    <path fill-rule="evenodd" clip-rule="evenodd" d="M121.484 538.029L57.674 514.283C57.2475 515.07 56.821 515.858 56.3945 516.645L117.137 549.066L121.484 538.029Z" fill="#1A1A1A"/>
    <path d="M117.333 549.656L116.923 549.443L55.8203 516.825L57.4771 513.791L57.8051 513.922L122.008 537.8L117.333 549.656ZM56.9358 516.481L116.907 548.492L120.942 538.259L57.8543 514.791L56.9358 516.481Z" fill="#373435"/>
    <path fill-rule="evenodd" clip-rule="evenodd" d="M271.756 543.081L207.881 559.644L210.538 570.927L253.843 552.74L272.33 544.967L271.756 543.081Z" fill="#1A1A1A"/>
    <path d="M210.244 571.485L207.373 559.333L272.019 542.589L272.823 545.213L272.479 545.36L210.244 571.485ZM208.374 559.939L210.834 570.369L271.839 544.754L271.494 543.589L208.374 559.939Z" fill="#373435"/>
    <path d="M222.137 607.997L222.018 609.633L328.33 617.359L328.449 615.723L222.137 607.997Z" fill="white"/>
    <path d="M293.885 614.664L264.014 586.096L253.057 553.002L254.615 552.478L265.441 585.194L295.017 613.467L293.885 614.664Z" fill="white"/>
    <path d="M168.857 167.388H168.037V228.623H168.857V167.388Z" fill="white"/>
    <path d="M198.417 209.452H153.078V210.272H198.417V209.452Z" fill="white"/>
    <path d="M208.686 183.902H161.264V184.722H208.686V183.902Z" fill="white"/>
    <path d="M194.693 151.104H193.873V222.014H194.693V151.104Z" fill="white"/>
    <path d="M224.924 158.976H172.859V159.796H224.924V158.976Z" fill="white"/>
    <path d="M219.527 153.038H218.707V166.469H219.527V153.038Z" fill="white"/>
    <path d="M169.219 258.322H168.398V337.958H169.219V258.322Z" fill="white"/>
    <path d="M195.152 257.585H194.332V343.468H195.152V257.585Z" fill="white"/>
    <path d="M219.25 268.621H218.43V329.676H219.25V268.621Z" fill="white"/>
    <path d="M245.199 293.859H244.379V365.492H245.199V293.859Z" fill="white"/>
    <path d="M270.215 326.413H269.395V406.59H270.215V326.413Z" fill="white"/>
    <path d="M295.312 360.425H294.492V402.325H295.312V360.425Z" fill="white"/>
    <path d="M283.501 411.23H273.02V412.05H283.501V411.23Z" fill="white"/>
    <path d="M312.372 385.581H257.289V386.401H312.372V385.581Z" fill="white"/>
    <path d="M294.901 360.605H242.574V361.425H294.901V360.605Z" fill="white"/>
    <path d="M277.023 335.366H226.992V336.186H277.023V335.366Z" fill="white"/>
    <path d="M214.756 335.284H161.51V336.104H214.756V335.284Z" fill="white"/>
    <path d="M170.688 346.606L131.785 385.499L132.365 386.079L171.268 347.186L170.688 346.606Z" fill="white"/>
    <path d="M228.928 270.458C216.806 270.458 206.947 260.602 206.947 248.483C206.947 236.364 216.806 226.508 228.928 226.508C241.05 226.508 250.909 236.364 250.909 248.483C250.909 260.602 241.05 270.458 228.928 270.458ZM228.928 228.164C217.724 228.164 208.588 237.282 208.588 248.499C208.588 259.7 217.708 268.835 228.928 268.835C240.132 268.835 249.268 259.716 249.268 248.499C249.268 237.282 240.148 228.164 228.928 228.164Z" fill="black"/>
    <path fill-rule="evenodd" clip-rule="evenodd" d="M245.675 248.122C245.675 237.807 238.277 229.197 228.501 227.344C217.018 227.573 207.783 236.954 207.783 248.483C207.783 258.798 215.181 267.407 224.958 269.26C236.44 269.031 245.675 259.65 245.675 248.122Z" fill="#131924"/>
    <path fill-rule="evenodd" clip-rule="evenodd" d="M136.132 267.177C131.818 265.013 128.865 260.552 128.865 255.403C128.865 254.96 128.881 254.534 128.931 254.091C127.766 253.681 126.503 253.451 125.191 253.451C118.99 253.451 113.971 258.469 113.971 264.668C113.971 270.867 118.99 275.886 125.191 275.886C130.522 275.886 134.984 272.179 136.132 267.177Z" fill="#131924"/>
    <path fill-rule="evenodd" clip-rule="evenodd" d="M136.297 263.111C138.627 265.144 141.661 266.391 144.991 266.391C151.438 266.391 156.802 261.766 157.95 255.649C153.964 253.37 151.29 249.106 151.29 244.186C151.29 243.35 151.372 242.53 151.52 241.742C149.601 240.644 147.37 240.021 144.991 240.021C137.708 240.021 131.803 245.924 131.803 253.206C131.803 254.108 131.901 254.977 132.065 255.829C132.656 258.699 134.165 261.241 136.297 263.111Z" fill="#131924"/>
    <path fill-rule="evenodd" clip-rule="evenodd" d="M171.302 255.486C174.468 254.666 177.174 252.698 178.946 250.057C178.323 249.172 177.781 248.221 177.338 247.204C176.453 245.187 175.961 242.956 175.961 240.595C175.961 239.709 176.026 238.84 176.174 238.004C176.42 236.446 176.879 234.97 177.535 233.592C175.14 231.083 171.745 229.525 168.005 229.525C165.511 229.525 163.182 230.214 161.197 231.411C157.375 233.724 154.816 237.922 154.816 242.71C154.816 249.992 160.722 255.896 168.005 255.896C169.137 255.896 170.252 255.748 171.302 255.486Z" fill="#131924"/>
    <path fill-rule="evenodd" clip-rule="evenodd" d="M180.488 246.941C183.195 252.254 188.723 255.911 195.104 255.911C196.727 255.911 198.302 255.682 199.778 255.239C201.731 254.665 203.518 253.73 205.093 252.517C204.995 252.09 204.929 251.647 204.864 251.205C204.716 250.204 204.634 249.171 204.634 248.138C204.634 243.792 205.946 239.758 208.177 236.412C208.833 235.428 209.588 234.494 210.392 233.624C208.029 227.491 202.059 223.129 195.087 223.129C192.413 223.129 189.871 223.768 187.64 224.916C183.424 227.065 180.258 231.001 179.126 235.707C178.831 236.937 178.684 238.2 178.684 239.528C178.716 242.185 179.356 244.71 180.488 246.941Z" fill="#131924"/>
    <path fill-rule="evenodd" clip-rule="evenodd" d="M113.054 312.932L118.762 279.182L118.91 278.329C116.515 277.509 114.481 275.902 113.119 273.819L112.873 273.934L84.9219 288.546L113.054 312.932Z" fill="#131924"/>
    <path d="M198.287 349.366L91.6934 455.934L92.2733 456.513L198.867 349.946L198.287 349.366Z" fill="white"/>
    <path d="M212.076 366.473L104.658 473.863L105.238 474.443L212.656 367.053L212.076 366.473Z" fill="white"/>
    <path d="M218.88 390.384L177.959 431.295L178.539 431.875L219.46 390.964L218.88 390.384Z" fill="white"/>
    <path d="M225.505 414.661L184.398 455.757L184.978 456.337L226.085 415.24L225.505 414.661Z" fill="white"/>
    <path d="M239.573 462.014L218.881 482.701L219.461 483.281L240.153 462.594L239.573 462.014Z" fill="white"/>
    <path d="M232.812 438.055L190.279 480.577L190.859 481.157L233.392 438.634L232.812 438.055Z" fill="white"/>
    <path d="M141.661 466.077L123.59 484.144L124.75 485.303L142.821 467.237L141.661 466.077Z" fill="white"/>
    <path d="M19.5193 569.336C19.0108 569.336 18.5187 569.303 18.0266 569.254C14.1225 568.779 11.416 566.417 11.3011 563.334C11.1371 558.824 16.4518 552.97 31.1494 548.722C18.0102 549.755 11.3831 545.885 9.69359 541.621C8.57815 538.801 9.59517 535.898 12.3181 534.225C17.4032 531.093 27.8195 532.487 40.4994 546.722L40.647 546.885L40.5814 547.099C36.1852 562.662 27.1141 569.336 19.5193 569.336ZM39.2691 547.574C18.978 551.74 11.9573 558.611 12.1213 563.301C12.2197 565.958 14.631 568.008 18.125 568.434C23.6694 569.09 34.3316 565.4 39.6136 547.509C39.4988 547.541 39.3839 547.558 39.2691 547.574ZM17.6001 533.668C15.6973 533.668 14.0569 534.11 12.761 534.914C10.3989 536.373 9.51315 538.883 10.481 541.326C12.3838 546.098 21.012 550.313 39.1051 546.787C39.2035 546.771 39.3183 546.738 39.4167 546.722C30.9525 537.407 23.1445 533.668 17.6001 533.668Z" fill="black"/>
    <path d="M42.928 585.44L39.7949 547.016L40.5495 546.754L55.4439 569.926L54.7549 570.369L40.7463 548.574L43.7318 585.374L42.928 585.44Z" fill="black"/>
    <path d="M291.325 576.306C288.652 576.306 285.666 575.945 282.402 575.158L282.189 575.109L282.123 574.896C277.022 559.972 280.286 551.887 284.616 549.493C286.962 548.198 289.488 548.657 291.096 550.641C293.441 553.544 293.589 559.71 287.848 568.467C296.657 560.021 302.89 558.66 306.023 560.595C308.221 561.94 308.828 564.892 307.565 567.91C305.662 572.534 300.068 576.306 291.325 576.306ZM283.271 574.518C298.149 577.93 305.072 571.796 306.843 567.598C307.942 564.958 307.45 562.416 305.613 561.301C302.332 559.283 294.573 561.547 283.386 574.387C283.337 574.437 283.304 574.469 283.271 574.518ZM287.29 549.591C286.536 549.591 285.765 549.788 285.01 550.215C280.696 552.593 278.35 560.825 282.664 573.944C282.697 573.912 282.73 573.879 282.763 573.83C292.605 562.301 293.097 554.413 290.456 551.149C289.636 550.133 288.504 549.591 287.29 549.591Z" fill="black"/>
    <path d="M288.324 603.643L282.977 575.797L277.121 594.689L276.35 594.443L282.681 573.993L283.485 574.042L289.128 603.479L288.324 603.643Z" fill="black"/>
    <path d="M209.734 259.602H157.309V260.422H209.734V259.602Z" fill="white"/>
    <path d="M238.064 285.365H148.764V286.185H238.064V285.365Z" fill="white"/>
    <path d="M257.552 310.637H154.555V311.457H257.552V310.637Z" fill="white"/>
    <path d="M156.161 234.97H148.074V235.79H156.161V234.97Z" fill="white"/>
    <path fill-rule="evenodd" clip-rule="evenodd" d="M231.683 64.2519L162.887 24.1719L205.569 91.852L167.316 98.8382L203.371 106.923L176.879 142.231L199.417 131.85C210.703 118.763 223.432 106.267 238.753 98.4938L231.683 74.9771L263.375 65.1703L259.651 27.5009L231.683 64.2519Z" fill="#00CCB3"/>
    <path d="M143.451 84.2256L126.887 104.812L127.526 105.325L144.09 84.7395L143.451 84.2256Z" fill="black"/>
</svg>
