<svg width="596" height="438" viewBox="0 0 596 438" fill="none" xmlns="http://www.w3.org/2000/svg">
    <g clip-path="url(#clip0)">
        <path opacity="0.2" fill-rule="evenodd" clip-rule="evenodd" d="M375.299 320.2C375.299 249.1 488.599 209.4 460.199 118.8C434.999 37.9996 345.999 -19.5004 267.999 27.7996C190.799 74.5996 169.799 16.0996 97.1991 75.5996C24.4991 135.1 -32.2009 189.9 21.1991 226.3C74.5991 262.7 74.6991 171.4 127.499 226.3C180.399 281.2 97.5991 437.9 254.399 438C411.199 438.1 375.299 409.5 375.299 320.2Z" fill="#00CCB3"/>
        <path opacity="0.2" fill-rule="evenodd" clip-rule="evenodd" d="M167.199 399.6L379.599 387C384.499 395.4 380.399 406.4 367.499 420C245.799 415.1 210.899 420 184.099 420C173.699 410.8 168.099 404 167.199 399.6Z" fill="#F3F3F3"/>
        <path d="M36.6004 20.5004C106.3 -47.6996 273.1 84.1004 270.8 103.1C264.8 152.9 55.8004 341.2 95.4004 216.3C102.8 193.1 -2.99959 59.2004 36.6004 20.5004Z" stroke="#26C644" stroke-width="2" stroke-linecap="round" stroke-linejoin="round"/>
        <path fill-rule="evenodd" clip-rule="evenodd" d="M472.699 164.1C470.599 172.3 468.999 178.6 467.999 182.9C421.999 174.8 149.099 185.5 146.699 182.9C148.399 170.4 149.799 161.1 150.699 154.9L472.699 164.1Z" fill="#C0872C"/>
        <path opacity="0.2" fill-rule="evenodd" clip-rule="evenodd" d="M500.5 304C513.2 320.5 521.5 332.9 525.2 341.2C479.3 347.1 162.3 347.1 159.9 344.5C157.3 334.9 154.5 319.9 151.6 299.5L500.5 304Z" fill="#C0872C"/>
        <path d="M161 132C172.046 132 181 123.046 181 112C181 100.954 172.046 92 161 92C149.954 92 141 100.954 141 112C141 123.046 149.954 132 161 132Z" fill="#58595B"/>
        <path d="M161 132C172.046 132 181 123.046 181 112C181 100.954 172.046 92 161 92C149.954 92 141 100.954 141 112C141 123.046 149.954 132 161 132Z" fill="#58595B"/>
        <path d="M161 132C172.046 132 181 123.046 181 112C181 100.954 172.046 92 161 92C149.954 92 141 100.954 141 112C141 123.046 149.954 132 161 132Z" fill="#EEEEEE"/>
        <path fill-rule="evenodd" clip-rule="evenodd" d="M74 34H590C592.8 34 595 36.2 595 39V407C595 409.8 592.8 412 590 412H74C71.2 412 69 409.8 69 407V39C69 36.2 71.2 34 74 34Z" fill="white" stroke="#E5E5E5"/>
        <path d="M554.955 268.1L558.155 264.4L559.555 265.7L555.755 268.9C555.655 269 555.555 269 555.355 269C555.155 269 554.955 268.9 554.855 268.7C554.855 268.5 554.855 268.3 554.955 268.1ZM557.755 260.8C557.555 260.8 557.255 260.9 557.155 261.2C557.055 261.4 557.155 261.7 557.255 261.8L562.155 266.6C562.355 266.8 562.555 266.8 562.855 266.7C563.055 266.6 563.255 266.4 563.255 266.2V263.8L565.355 261.7L565.755 262.1C566.055 262.4 566.555 262.4 566.855 262.1L566.955 262C567.155 261.7 567.055 261.3 566.855 261L563.055 257.3C562.755 257 562.355 257 562.055 257.2C561.755 257.4 561.655 257.9 561.855 258.2L561.955 258.3L562.355 258.7L560.255 260.8H557.755Z" fill="#26C644"/>
        <path fill-rule="evenodd" clip-rule="evenodd" d="M554.855 257H566.855V269H554.855V257Z" fill="#26C644"/>
        <path fill-rule="evenodd" clip-rule="evenodd" d="M436 259H518C520.2 259 522 260.8 522 263C522 265.2 520.2 267 518 267H436C433.8 267 432 265.2 432 263C432 260.8 433.8 259 436 259Z" fill="#F3F3F3"/>
        <path fill-rule="evenodd" clip-rule="evenodd" d="M436 317H503C505.2 317 507 318.8 507 321C507 323.2 505.2 325 503 325H436C433.8 325 432 323.2 432 321C432 318.8 433.8 317 436 317Z" fill="#F3F3F3"/>
        <path fill-rule="evenodd" clip-rule="evenodd" d="M436 377H503C505.2 377 507 378.8 507 381C507 383.2 505.2 385 503 385H436C433.8 385 432 383.2 432 381C432 378.8 433.8 377 436 377Z" fill="#F3F3F3"/>
        <path d="M554.1 326.1L557.3 322.4L558.7 323.7L554.9 326.9C554.8 327 554.7 327 554.5 327C554.3 327 554.1 326.9 554 326.7C554 326.5 554 326.3 554.1 326.1ZM556.9 318.8C556.7 318.8 556.4 318.9 556.3 319.2C556.2 319.4 556.3 319.7 556.4 319.8L561.3 324.6C561.5 324.8 561.7 324.8 562 324.7C562.2 324.6 562.4 324.4 562.4 324.2V321.8L564.5 319.7L564.9 320.1C565.2 320.4 565.7 320.4 566 320.1L566.1 320C566.3 319.7 566.2 319.3 566 319L562.2 315.3C561.9 315 561.5 315 561.2 315.2C560.9 315.4 560.8 315.9 561 316.2L561.1 316.3L561.5 316.7L559.4 318.8H556.9Z" fill="#7E0048"/>
        <path fill-rule="evenodd" clip-rule="evenodd" d="M554 315H566V327H554V315Z" fill="#E3E3E3"/>
        <path d="M322 451.5C330.008 451.5 336.5 445.008 336.5 437C336.5 428.992 330.008 422.5 322 422.5C313.992 422.5 307.5 428.992 307.5 437C307.5 445.008 313.992 451.5 322 451.5Z" stroke="white" stroke-width="3"/>
        <path d="M98.5 269V257.6H99.9V262.6H106.6V257.6H108V269H106.6V263.8H99.9V269H98.5ZM113.8 260.8C114.9 260.8 115.9 261.2 116.6 262C117.3 262.8 117.7 263.8 117.7 265.1C117.7 266.4 117.3 267.4 116.6 268.2C115.9 269 115 269.4 113.8 269.4C112.7 269.4 111.7 269 111 268.2C110.3 267.4 109.9 266.4 109.9 265.1C109.9 263.8 110.3 262.8 111 262C111.7 261.1 112.6 260.8 113.8 260.8ZM113.8 261.8C113 261.8 112.4 262.1 112 262.6C111.6 263.2 111.3 263.9 111.3 264.9C111.3 265.9 111.5 266.6 112 267.2C112.4 267.8 113.1 268 113.8 268C114.6 268 115.2 267.7 115.6 267.2C116 266.6 116.3 265.9 116.3 264.9C116.3 263.9 116.1 263.2 115.6 262.6C115.2 262.1 114.6 261.8 113.8 261.8ZM125 261L126.8 267.6L128.7 261H130L127.6 269H126.2L124.3 262.5L122.5 269H121L118.6 261H119.9L121.8 267.6L123.6 261H125ZM140.1 261L141.9 267.6L143.8 261H145.1L142.7 269H141.3L139.4 262.5L137.6 269H136.2L133.8 261H135.1L137 267.6L138.8 261H140.1ZM153.3 266.6C153.1 267.4 152.7 268 152.1 268.5C151.5 269 150.8 269.2 149.9 269.2C148.7 269.2 147.8 268.8 147.1 268.1C146.4 267.3 146 266.3 146 265.1C146 263.9 146.4 262.8 147.1 262C147.8 261.2 148.7 260.8 149.8 260.8C150.9 260.8 151.7 261.2 152.3 261.9C152.9 262.6 153.2 263.6 153.2 264.8V265.3H147.2C147.2 266.2 147.5 266.9 147.9 267.4C148.3 267.9 149 268.2 149.7 268.2C150.2 268.2 150.7 268.1 151 267.8C151.3 267.6 151.6 267.2 151.8 266.7L153.3 266.6ZM149.9 261.8C149.2 261.8 148.7 262 148.3 262.4C147.9 262.8 147.6 263.4 147.5 264.2H152.1C152.1 263.4 151.9 262.8 151.5 262.4C151.1 262.1 150.6 261.8 149.9 261.8ZM163.9 261L165.7 267.6L167.6 261H168.9L166.5 269H165.1L163.2 262.5L161.4 269H160L157.6 261H158.9L160.8 267.6L162.6 261H163.9ZM173.7 260.8C174.8 260.8 175.8 261.2 176.5 262C177.2 262.8 177.6 263.8 177.6 265.1C177.6 266.4 177.2 267.4 176.5 268.2C175.8 269 174.9 269.4 173.7 269.4C172.6 269.4 171.6 269 170.9 268.2C170.2 267.4 169.8 266.4 169.8 265.1C169.8 263.8 170.2 262.8 170.9 262C171.6 261.1 172.6 260.8 173.7 260.8ZM173.7 261.8C172.9 261.8 172.3 262.1 171.9 262.6C171.5 263.1 171.2 263.9 171.2 264.9C171.2 265.9 171.4 266.6 171.9 267.2C172.3 267.8 173 268 173.7 268C174.5 268 175.1 267.7 175.5 267.2C175.9 266.6 176.2 265.9 176.2 264.9C176.2 263.9 176 263.2 175.5 262.6C175 262 174.5 261.8 173.7 261.8ZM183.3 260.8C183.4 260.8 183.5 260.8 183.6 260.8C183.7 260.8 183.8 260.8 183.9 260.8V262C183.8 262 183.7 262 183.6 262C183.5 262 183.3 262 183.2 262C182.5 262 181.9 262.3 181.4 262.8C180.9 263.4 180.7 264.1 180.7 265V269H179.4V261H180.7V262.9C180.9 262.3 181.2 261.8 181.6 261.4C182.2 261 182.7 260.8 183.3 260.8ZM190.8 269L187.7 265.2L186.7 266.2V269H185.4V257.2H186.7V264.8L190.7 260.9H192.3L188.7 264.3L192.4 268.9L190.8 269Z" fill="#333333"/>
        <path d="M97.0996 350H567.1" stroke="#E3E3E3" stroke-linecap="square"/>
        <path d="M97.0996 292H567.1" stroke="#E3E3E3" stroke-linecap="square"/>
        <path d="M106.2 327H98.5V315.6H106.2V316.8H99.8V320.8H105.4V322H99.8V326H106.2V327ZM112.2 318.8C112.8 318.8 113.3 318.9 113.8 319.2C114.2 319.5 114.5 319.9 114.7 320.5C114.9 320 115.3 319.5 115.8 319.2C116.3 318.9 116.8 318.7 117.4 318.8C118.3 318.8 119 319.1 119.5 319.6C120 320.1 120.2 320.9 120.2 321.9V327.1H118.9V322.2C118.9 321.4 118.8 320.9 118.5 320.5C118.2 320.1 117.8 320 117.2 320C116.5 320 116 320.2 115.6 320.7C115.2 321.2 115 321.8 115 322.7V327.1H113.7V322.2C113.7 321.4 113.6 320.9 113.3 320.5C113 320.1 112.6 320 112 320C111.3 320 110.8 320.2 110.4 320.7C110 321.2 109.8 321.9 109.8 322.7V327.1H108.5V319.1H109.8V320.6C110 320.1 110.3 319.7 110.8 319.4C111.1 318.9 111.7 318.8 112.2 318.8ZM126.6 327.2C126 327.2 125.5 327.1 125 326.8C124.5 326.5 124.2 326.1 123.9 325.6V329.9H122.6V319H123.9V320.5C124.1 320 124.5 319.6 125 319.3C125.5 319 126 318.8 126.6 318.8C127.7 318.8 128.5 319.2 129.2 320C129.9 320.8 130.2 321.8 130.2 323.1C130.2 324.4 129.9 325.4 129.2 326.1C128.5 326.8 127.7 327.2 126.6 327.2ZM126.4 319.8C125.6 319.8 125 320.1 124.6 320.6C124.2 321.2 123.9 321.9 123.9 322.8V323C123.9 323.9 124.1 324.7 124.6 325.2C125 325.8 125.6 326 126.4 326C127.2 326 127.8 325.7 128.2 325.1C128.6 324.5 128.9 323.8 128.9 322.8C128.9 321.8 128.7 321.1 128.2 320.5C127.7 320.1 127.1 319.8 126.4 319.8ZM133.5 327H132.2V315.2H133.5V327ZM139.3 318.8C140.4 318.8 141.4 319.2 142.1 320C142.8 320.8 143.2 321.8 143.2 323.1C143.2 324.4 142.8 325.4 142.1 326.2C141.4 327 140.5 327.4 139.3 327.4C138.2 327.4 137.2 327 136.5 326.2C135.8 325.4 135.4 324.4 135.4 323.1C135.4 321.8 135.8 320.8 136.5 320C137.2 319.1 138.2 318.8 139.3 318.8ZM139.3 319.8C138.5 319.8 137.9 320.1 137.5 320.6C137.1 321.1 136.8 321.9 136.8 322.9C136.8 323.9 137 324.6 137.5 325.2C137.9 325.8 138.6 326 139.3 326C140.1 326 140.7 325.7 141.1 325.2C141.5 324.6 141.8 323.9 141.8 322.9C141.8 321.9 141.6 321.2 141.1 320.6C140.7 320.1 140.1 319.8 139.3 319.8ZM145.5 328.9C145.9 328.9 146.2 328.8 146.4 328.5C146.6 328.3 146.9 327.8 147.2 327.1L144 319H145.4L148 325.6L150.4 319H151.8L148.6 327.3C148.2 328.4 147.8 329.1 147.4 329.5C147 329.9 146.4 330.1 145.8 330.1C145.7 330.1 145.6 330.1 145.4 330.1C145.3 330.1 145.1 330.1 145 330V328.9C145.1 328.9 145.2 328.9 145.3 328.9C145.2 328.9 145.3 328.9 145.5 328.9ZM159.6 324.6C159.4 325.4 159 326 158.4 326.5C157.8 327 157.1 327.2 156.2 327.2C155 327.2 154.1 326.8 153.4 326.1C152.7 325.3 152.3 324.3 152.3 323.1C152.3 321.9 152.7 320.8 153.4 320C154.1 319.2 155 318.8 156.1 318.8C157.2 318.8 158 319.2 158.6 319.9C159.2 320.6 159.5 321.6 159.5 322.8V323.3H153.5C153.5 324.2 153.8 324.9 154.2 325.4C154.6 325.9 155.3 326.2 156 326.2C156.5 326.2 157 326.1 157.3 325.8C157.6 325.6 157.9 325.2 158.1 324.7L159.6 324.6ZM156.2 319.8C155.5 319.8 155 320 154.6 320.4C154.2 320.8 153.9 321.4 153.8 322.2H158.4C158.4 321.4 158.2 320.8 157.8 320.4C157.4 320.1 156.9 319.8 156.2 319.8ZM168.3 324.6C168.1 325.4 167.7 326 167.1 326.5C166.5 327 165.8 327.2 164.9 327.2C163.7 327.2 162.8 326.8 162.1 326.1C161.4 325.3 161 324.3 161 323.1C161 321.9 161.4 320.8 162.1 320C162.8 319.2 163.7 318.8 164.8 318.8C165.9 318.8 166.7 319.2 167.3 319.9C167.9 320.6 168.2 321.6 168.2 322.8V323.3H162.2C162.2 324.2 162.5 324.9 162.9 325.4C163.3 325.9 164 326.2 164.7 326.2C165.2 326.2 165.7 326.1 166 325.8C166.3 325.6 166.6 325.2 166.8 324.7L168.3 324.6ZM164.8 319.8C164.1 319.8 163.6 320 163.2 320.4C162.8 320.8 162.5 321.4 162.4 322.2H167C167 321.4 166.8 320.8 166.4 320.4C166 320.1 165.5 319.8 164.8 319.8ZM173.5 327V315.6H174.9V320.6H181.6V315.6H183V327H181.6V321.8H174.9V327H173.5ZM190.5 327C190.5 326.8 190.4 326.5 190.4 326.3C190.4 326.1 190.4 325.9 190.4 325.6C190.2 326.1 189.9 326.4 189.4 326.7C188.9 327 188.3 327.1 187.6 327.1C186.8 327.1 186.2 326.9 185.7 326.5C185.2 326.1 185 325.5 185 324.8C185 324.1 185.2 323.6 185.7 323.2C186.2 322.8 186.9 322.5 187.8 322.4L190.4 322.1V321.6C190.4 321 190.2 320.6 189.9 320.2C189.6 319.9 189.1 319.7 188.5 319.7C188 319.7 187.5 319.8 187.2 320.1C186.9 320.4 186.7 320.7 186.6 321.2H185.3C185.4 320.4 185.7 319.8 186.3 319.3C186.9 318.8 187.6 318.6 188.5 318.6C189.5 318.6 190.3 318.8 190.9 319.3C191.4 319.8 191.7 320.5 191.7 321.4V325.1C191.7 325.5 191.7 325.8 191.7 326C191.7 326.3 191.8 326.5 191.8 326.7H190.5V327ZM186.3 324.8C186.3 325.2 186.4 325.5 186.7 325.8C187 326 187.4 326.2 187.8 326.2C188.5 326.2 189.1 326 189.6 325.5C190.1 325.1 190.3 324.5 190.3 323.8V323.1L188.1 323.3C187.4 323.4 186.9 323.6 186.7 323.8C186.5 324.1 186.3 324.4 186.3 324.8ZM195.4 319V320.5C195.6 320 195.9 319.6 196.4 319.3C196.9 319 197.4 318.9 198 318.9C198.9 318.9 199.6 319.2 200.1 319.7C200.6 320.2 200.9 321 200.9 322V327.2H199.6V322.3C199.6 321.6 199.4 321 199.1 320.6C198.8 320.2 198.3 320 197.7 320C197 320 196.5 320.2 196.1 320.7C195.7 321.2 195.5 321.8 195.5 322.7V327.1H194.2V319.1C194.1 319 195.4 319 195.4 319ZM206.4 327.2C205.4 327.2 204.5 326.8 203.8 326C203.1 325.2 202.8 324.2 202.8 323C202.8 321.8 203.1 320.7 203.8 319.9C204.5 319.1 205.3 318.7 206.4 318.7C207 318.7 207.5 318.8 208 319.1C208.5 319.4 208.8 319.8 209 320.3V315.1H210.3V327H209V325.6C208.8 326.1 208.4 326.5 207.9 326.8C207.6 327 207 327.2 206.4 327.2ZM206.7 319.8C205.9 319.8 205.3 320.1 204.9 320.7C204.4 321.3 204.2 322.1 204.2 323C204.2 324 204.4 324.7 204.9 325.3C205.3 325.9 206 326.2 206.7 326.2C207.5 326.2 208.1 325.9 208.5 325.4C208.9 324.8 209.2 324.1 209.2 323.2V323C209.2 322.1 209 321.3 208.5 320.8C208 320.1 207.4 319.8 206.7 319.8ZM217 327.2C216.4 327.2 215.9 327.1 215.4 326.8C214.9 326.5 214.6 326.1 214.3 325.6V327H213V315.2H214.3V320.4C214.5 319.9 214.9 319.5 215.4 319.2C215.9 318.9 216.4 318.8 217 318.8C218.1 318.8 218.9 319.2 219.6 320C220.3 320.8 220.6 321.8 220.6 323.1C220.6 324.4 220.3 325.4 219.6 326.1C218.9 326.8 218 327.2 217 327.2ZM216.7 319.8C215.9 319.8 215.3 320.1 214.9 320.6C214.5 321.2 214.2 321.9 214.2 322.8V323C214.2 323.9 214.4 324.7 214.9 325.2C215.3 325.8 215.9 326 216.7 326C217.5 326 218.1 325.7 218.5 325.1C218.9 324.5 219.2 323.8 219.2 322.8C219.2 321.8 219 321.1 218.5 320.5C218.1 320.1 217.5 319.8 216.7 319.8ZM225.8 318.8C226.9 318.8 227.9 319.2 228.6 320C229.3 320.8 229.7 321.8 229.7 323.1C229.7 324.4 229.3 325.4 228.6 326.2C227.9 327 227 327.4 225.8 327.4C224.6 327.4 223.7 327 223 326.2C222.3 325.4 221.9 324.4 221.9 323.1C221.9 321.8 222.3 320.8 223 320C223.7 319.1 224.6 318.8 225.8 318.8ZM225.8 319.8C225 319.8 224.4 320.1 224 320.6C223.6 321.1 223.3 321.9 223.3 322.9C223.3 323.9 223.5 324.6 224 325.2C224.4 325.8 225.1 326 225.8 326C226.6 326 227.2 325.7 227.6 325.2C228 324.6 228.3 323.9 228.3 322.9C228.3 321.9 228.1 321.2 227.6 320.6C227.2 320.1 226.5 319.8 225.8 319.8ZM234.8 318.8C235.9 318.8 236.9 319.2 237.6 320C238.3 320.8 238.7 321.8 238.7 323.1C238.7 324.4 238.3 325.4 237.6 326.2C236.9 327 236 327.4 234.8 327.4C233.7 327.4 232.7 327 232 326.2C231.3 325.4 230.9 324.4 230.9 323.1C230.9 321.8 231.3 320.8 232 320C232.7 319.1 233.7 318.8 234.8 318.8ZM234.8 319.8C234 319.8 233.4 320.1 233 320.6C232.6 321.1 232.3 321.9 232.3 322.9C232.3 323.9 232.5 324.6 233 325.2C233.4 325.8 234.1 326 234.8 326C235.6 326 236.2 325.7 236.6 325.2C237 324.6 237.3 323.9 237.3 322.9C237.3 321.9 237.1 321.2 236.6 320.6C236.2 320.1 235.6 319.8 234.8 319.8ZM246 327L242.9 323.2L241.9 324.2V327H240.6V315.2H241.9V322.8L245.9 318.9H247.5L243.9 322.3L247.6 326.9L246 327Z" fill="#333333"/>
        <path d="M554.1 384.1L557.3 380.4L558.7 381.7L554.9 384.9C554.8 385 554.7 385 554.5 385C554.3 385 554.1 384.9 554 384.7C554 384.5 554 384.3 554.1 384.1ZM556.9 376.8C556.7 376.8 556.4 376.9 556.3 377.2C556.2 377.4 556.3 377.7 556.4 377.8L561.3 382.6C561.5 382.8 561.7 382.8 562 382.7C562.2 382.6 562.4 382.4 562.4 382.2V379.8L564.5 377.7L564.9 378.1C565.2 378.4 565.7 378.4 566 378.1L566.1 378C566.3 377.7 566.2 377.3 566 377L562.2 373.3C561.9 373 561.5 373 561.2 373.2C560.9 373.4 560.8 373.9 561 374.2L561.1 374.3L561.5 374.7L559.4 376.8H556.9Z" fill="#7E0048"/>
        <path fill-rule="evenodd" clip-rule="evenodd" d="M554 373H566V385H554V373Z" fill="#E3E3E3"/>
        <path d="M98.5 385V373.6H99.9V378.6H106.6V373.6H108V385H106.6V379.8H99.9V385H98.5ZM110.5 375.3V373.7H112V375.3H110.5ZM110.6 385V377H111.9V385H110.6ZM118.3 376.8C118.4 376.8 118.5 376.8 118.6 376.8C118.7 376.8 118.8 376.8 118.9 376.8V378C118.8 378 118.7 378 118.6 378C118.5 378 118.3 378 118.2 378C117.5 378 116.9 378.3 116.4 378.8C115.9 379.4 115.7 380.1 115.7 381V385H114.4V377H115.7V378.9C115.9 378.3 116.2 377.8 116.6 377.4C117.1 377 117.7 376.8 118.3 376.8ZM120.2 375.3V373.7H121.7V375.3H120.2ZM120.3 385V377H121.6V385H120.3ZM125.5 377V378.5C125.7 378 126 377.6 126.5 377.3C127 377 127.5 376.9 128.1 376.9C129 376.9 129.7 377.2 130.2 377.7C130.7 378.2 131 379 131 380V385.2H129.7V380.3C129.7 379.6 129.5 379 129.2 378.6C128.9 378.2 128.4 378 127.8 378C127.1 378 126.6 378.2 126.2 378.7C125.8 379.2 125.6 379.8 125.6 380.7V385.1H124.3V377.1L125.5 377ZM136.6 387C137.4 387 138 386.8 138.5 386.4C138.9 386 139.1 385.3 139.1 384.5V383.3C138.9 383.8 138.5 384.1 138.1 384.4C137.6 384.7 137 384.8 136.5 384.8C135.4 384.8 134.6 384.4 133.9 383.7C133.2 383 132.9 382 132.9 380.8C132.9 379.6 133.2 378.6 133.9 377.9C134.6 377.2 135.4 376.8 136.5 376.8C137.1 376.8 137.6 376.9 138.1 377.2C138.6 377.5 139 377.9 139.2 378.4V377H140.5V384.4C140.5 385.6 140.2 386.5 139.5 387.1C138.8 387.7 137.9 388 136.7 388C135.7 388 134.9 387.8 134.3 387.4C133.7 387 133.3 386.4 133.1 385.7H134.4C134.5 386.1 134.8 386.5 135.1 386.7C135.5 386.9 136 387 136.6 387ZM136.7 383.8C137.4 383.8 138.1 383.5 138.5 383C139 382.5 139.2 381.8 139.2 381V380.6C139.2 379.8 139 379.1 138.5 378.6C138 378.1 137.4 377.8 136.7 377.8C135.9 377.8 135.3 378.1 134.9 378.6C134.5 379.1 134.2 379.9 134.2 380.8C134.2 381.7 134.4 382.4 134.9 383C135.3 383.5 135.9 383.8 136.7 383.8ZM150.2 385.2C149.6 385.2 149.1 385.1 148.6 384.8C148.1 384.5 147.8 384.1 147.5 383.6V387.9H146.2V377H147.5V378.5C147.7 378 148.1 377.6 148.6 377.3C149.1 377 149.6 376.8 150.2 376.8C151.3 376.8 152.1 377.2 152.8 378C153.5 378.8 153.8 379.8 153.8 381.1C153.8 382.4 153.5 383.4 152.8 384.1C152.1 384.8 151.3 385.2 150.2 385.2ZM150 377.8C149.2 377.8 148.6 378.1 148.2 378.6C147.8 379.2 147.5 379.9 147.5 380.8V381C147.5 381.9 147.7 382.7 148.2 383.2C148.6 383.8 149.2 384 150 384C150.8 384 151.4 383.7 151.8 383.1C152.2 382.5 152.5 381.8 152.5 380.8C152.5 379.8 152.3 379.1 151.8 378.5C151.3 378.1 150.7 377.8 150 377.8ZM159.6 376.8C159.7 376.8 159.8 376.8 159.9 376.8C160 376.8 160.1 376.8 160.2 376.8V378C160.1 378 160 378 159.9 378C159.8 378 159.6 378 159.5 378C158.8 378 158.2 378.3 157.7 378.8C157.2 379.4 157 380.1 157 381V385H155.7V377H157V378.9C157.2 378.3 157.5 377.8 157.9 377.4C158.5 377 159 376.8 159.6 376.8ZM164.9 376.8C166 376.8 167 377.2 167.7 378C168.4 378.8 168.8 379.8 168.8 381.1C168.8 382.4 168.4 383.4 167.7 384.2C167 385 166.1 385.4 164.9 385.4C163.8 385.4 162.8 385 162.1 384.2C161.4 383.4 161 382.4 161 381.1C161 379.8 161.4 378.8 162.1 378C162.8 377.1 163.7 376.8 164.9 376.8ZM164.9 377.8C164.1 377.8 163.5 378.1 163.1 378.6C162.7 379.1 162.4 379.9 162.4 380.9C162.4 381.9 162.6 382.6 163.1 383.2C163.5 383.8 164.2 384 164.9 384C165.7 384 166.3 383.7 166.7 383.2C167.1 382.6 167.4 381.9 167.4 380.9C167.4 379.9 167.2 379.2 166.7 378.6C166.3 378.1 165.7 377.8 164.9 377.8ZM173.9 385.2C172.8 385.2 171.8 384.8 171.1 384C170.4 383.2 170.1 382.2 170.1 380.9C170.1 379.6 170.5 378.6 171.2 377.8C171.9 377 172.8 376.6 173.9 376.6C174.8 376.6 175.5 376.8 176.1 377.3C176.7 377.8 177 378.5 177.1 379.3H175.8C175.7 378.8 175.5 378.3 175.1 378.1C174.8 377.8 174.3 377.7 173.8 377.7C173 377.7 172.4 378 172 378.5C171.6 379.1 171.3 379.8 171.3 380.8C171.3 381.8 171.5 382.5 172 383.1C172.4 383.7 173 383.9 173.8 383.9C174.3 383.9 174.8 383.8 175.1 383.5C175.4 383.2 175.7 382.8 175.8 382.3H177.1C177 383.2 176.6 383.8 176.1 384.3C175.5 385 174.8 385.2 173.9 385.2ZM185.6 382.6C185.4 383.4 185 384 184.4 384.5C183.8 385 183.1 385.2 182.2 385.2C181 385.2 180.1 384.8 179.4 384.1C178.7 383.3 178.3 382.3 178.3 381.1C178.3 379.9 178.7 378.8 179.4 378C180.1 377.2 181 376.8 182.1 376.8C183.2 376.8 184 377.2 184.6 377.9C185.2 378.6 185.5 379.6 185.5 380.8V381.3H179.5C179.5 382.2 179.8 382.9 180.2 383.4C180.6 383.9 181.3 384.2 182 384.2C182.5 384.2 183 384.1 183.3 383.8C183.6 383.6 183.9 383.2 184.1 382.7L185.6 382.6ZM182.2 377.8C181.5 377.8 181 378 180.6 378.4C180.2 378.8 179.9 379.4 179.8 380.2H184.4C184.4 379.4 184.2 378.8 183.8 378.4C183.4 378.1 182.9 377.8 182.2 377.8ZM190.5 385.2C189.5 385.2 188.7 385 188 384.5C187.4 384.1 187 383.4 187 382.6H188.3C188.3 383.1 188.6 383.5 189 383.8C189.4 384.1 189.9 384.2 190.5 384.2C191.1 384.2 191.5 384.1 191.9 383.8C192.2 383.6 192.4 383.2 192.4 382.8C192.4 382.5 192.3 382.2 192.1 382C191.9 381.8 191.5 381.7 191 381.6L189.6 381.3C188.8 381.2 188.2 380.9 187.9 380.5C187.5 380.2 187.4 379.7 187.4 379.1C187.4 378.4 187.7 377.8 188.2 377.4C188.8 376.9 189.5 376.7 190.3 376.7C191.2 376.7 192 376.9 192.5 377.3C193 377.7 193.4 378.3 193.4 379H192.2C192.2 378.6 192 378.3 191.6 378C191.3 377.8 190.8 377.7 190.3 377.7C189.8 377.7 189.3 377.8 189 378.1C188.7 378.3 188.5 378.7 188.5 379.1C188.5 379.4 188.6 379.7 188.8 379.8C189 380 189.4 380.1 189.9 380.2L191.5 380.5C192.2 380.6 192.7 380.9 193.1 381.2C193.4 381.6 193.6 382 193.6 382.7C193.6 383.4 193.3 384 192.7 384.4C192.1 385 191.4 385.2 190.5 385.2ZM198.4 385.2C197.4 385.2 196.6 385 195.9 384.5C195.3 384.1 194.9 383.4 194.9 382.6H196.2C196.2 383.1 196.5 383.5 196.9 383.8C197.3 384.1 197.8 384.2 198.4 384.2C199 384.2 199.4 384.1 199.8 383.8C200.1 383.6 200.3 383.2 200.3 382.8C200.3 382.5 200.2 382.2 200 382C199.8 381.8 199.4 381.7 198.9 381.6L197.5 381.3C196.7 381.2 196.1 380.9 195.8 380.5C195.4 380.2 195.3 379.7 195.3 379.1C195.3 378.4 195.6 377.8 196.1 377.4C196.7 376.9 197.4 376.7 198.2 376.7C199.1 376.7 199.9 376.9 200.4 377.3C200.9 377.7 201.3 378.3 201.3 379H200.1C200.1 378.6 199.9 378.3 199.5 378C199.2 377.8 198.7 377.7 198.2 377.7C197.7 377.7 197.2 377.8 196.9 378.1C196.6 378.3 196.4 378.7 196.4 379.1C196.4 379.4 196.5 379.7 196.7 379.8C196.9 380 197.3 380.1 197.8 380.2L199.4 380.5C200.1 380.6 200.6 380.9 201 381.2C201.3 381.6 201.5 382 201.5 382.7C201.5 383.4 201.2 384 200.6 384.4C200.1 385 199.4 385.2 198.4 385.2Z" fill="#333333"/>
        <path fill-rule="evenodd" clip-rule="evenodd" d="M101 115H563C565.2 115 567 116.8 567 119V123C567 125.2 565.2 127 563 127H101C98.8 127 97 125.2 97 123V119C97 116.8 98.8 115 101 115Z" fill="#F3F3F3"/>
        <path fill-rule="evenodd" clip-rule="evenodd" d="M101 139H419C421.2 139 423 140.8 423 143V147C423 149.2 421.2 151 419 151H101C98.8 151 97 149.2 97 147V143C97 140.8 98.8 139 101 139Z" fill="#F3F3F3"/>
        <path d="M231.6 79.4004H240.6C241.7 79.4004 242.6 80.3004 242.6 81.4004V85.3004C242.6 86.4004 241.7 87.3004 240.6 87.3004H231.6C230.5 87.3004 229.6 86.4004 229.6 85.3004V81.4004C229.6 80.3004 230.5 79.4004 231.6 79.4004Z" stroke="#212529" stroke-miterlimit="10"/>
        <path d="M232.6 79.1004V76.2004C232.6 74.3004 234 72.8004 235.9 72.6004C237.8 72.4004 239.5 73.7004 239.8 75.5004" stroke="#212529" stroke-miterlimit="10"/>
        <path d="M97 230.5H567" stroke="#E3E3E3" stroke-linecap="square"/>
        <path d="M98 230H139" stroke="#00CCB3" stroke-width="2" stroke-linecap="square"/>
        <path fill-rule="evenodd" clip-rule="evenodd" d="M378.932 195H383.932C388.632 195 392.432 198.8 392.432 203.5V204.5C392.432 209.2 388.632 213 383.932 213H378.932C374.232 213 370.432 209.2 370.432 204.5V203.5C370.432 198.8 374.232 195 378.932 195Z" fill="#26C644" stroke="white" stroke-width="2"/>
        <path d="M375.932 202.3V201.3C376.532 201.3 377.032 201.2 377.332 201C377.632 200.8 377.832 200.5 377.932 200.1H378.932V208H377.432V202.3H375.932ZM385.532 200.1V204.9H387.132V206H385.532V208H384.132V206H380.232V204.9L383.932 200.1H385.532ZM384.132 201.5L381.532 204.9H384.132V201.5Z" fill="white"/>
        <path d="M448.799 86.8008V74.4008C448.799 73.8008 448.199 73.3008 447.499 73.3008H438.499C437.799 73.3008 437.199 73.8008 437.199 74.4008V86.8008L442.699 83.2008C442.899 83.1008 443.099 83.1008 443.299 83.2008L448.799 86.8008Z" fill="#212529"/>
        <path d="M493.4 77.2004V76.3004C494.3 76.3004 495 76.2004 495.4 75.9004C495.8 75.6004 496.1 75.2004 496.3 74.6004H497.1V86.0004H495.7V77.2004H493.4ZM506.2 74.6004V81.8004H508.6V82.9004H506.2V86.0004H504.9V82.9004H499.2V81.8004L504.7 74.6004C504.6 74.6004 506.2 74.6004 506.2 74.6004ZM504.8 76.0004L500.5 81.8004H504.8V76.0004ZM514.3 86.2004C512.9 86.2004 511.9 85.6004 511 84.6004C510.2 83.5004 509.7 82.1004 509.7 80.3004C509.7 78.5004 510.1 77.1004 511 76.0004C511.8 74.9004 512.9 74.4004 514.3 74.4004C515.7 74.4004 516.8 74.9004 517.6 76.0004C518.4 77.1004 518.8 78.5004 518.8 80.3004C518.8 82.1004 518.4 83.5004 517.6 84.6004C516.7 85.6004 515.6 86.2004 514.3 86.2004ZM514.3 75.6004C513.3 75.6004 512.5 76.0004 512 76.8004C511.4 77.6004 511.2 78.8004 511.2 80.3004C511.2 81.8004 511.5 82.9004 512 83.8004C512.5 84.6004 513.3 85.1004 514.3 85.1004C515.3 85.1004 516.1 84.7004 516.6 83.9004C517.2 83.1004 517.4 81.9004 517.4 80.4004C517.4 78.9004 517.1 77.8004 516.6 76.9004C516 76.0004 515.3 75.6004 514.3 75.6004Z" fill="#333333"/>
        <path d="M485.1 87.5002V85.9002C485.1 84.1002 483.5 82.7002 481.4 82.7002H474.1C472.1 82.7002 470.4 84.1002 470.4 85.9002V87.5002" stroke="#333333" stroke-linecap="round" stroke-linejoin="round"/>
        <path d="M477.8 79.4C479.567 79.4 481 77.9673 481 76.2C481 74.4327 479.567 73 477.8 73C476.032 73 474.6 74.4327 474.6 76.2C474.6 77.9673 476.032 79.4 477.8 79.4Z" stroke="#333333" stroke-linecap="round" stroke-linejoin="round"/>
        <path d="M549 82C550.105 82 551 81.1046 551 80C551 78.8954 550.105 78 549 78C547.895 78 547 78.8954 547 80C547 81.1046 547.895 82 549 82Z" fill="#333333"/>
        <path d="M565 82C566.105 82 567 81.1046 567 80C567 78.8954 566.105 78 565 78C563.895 78 563 78.8954 563 80C563 81.1046 563.895 82 565 82Z" fill="#333333"/>
        <path d="M557 82C558.105 82 559 81.1046 559 80C559 78.8954 558.105 78 557 78C555.895 78 555 78.8954 555 80C555 81.1046 555.895 82 557 82Z" fill="#333333"/>
        <path d="M108.514 84.2361C108.514 79.8081 102.07 81.2121 102.07 78.6921C102.07 77.6661 102.808 77.1801 103.798 77.2161C104.878 77.2341 105.544 77.8821 105.598 78.7101H108.37C108.208 76.4421 106.444 75.1281 103.87 75.1281C101.278 75.1281 99.4423 76.4961 99.4423 78.7641C99.4243 83.3181 105.904 81.6801 105.904 84.3981C105.904 85.2981 105.202 85.9281 104.014 85.9281C102.844 85.9281 102.178 85.2621 102.106 84.2541H99.4063C99.4423 86.6301 101.458 87.9981 104.068 87.9981C106.93 87.9981 108.514 86.2161 108.514 84.2361ZM120.113 77.9001H117.575V83.3901C117.575 84.9921 116.711 85.8561 115.343 85.8561C114.011 85.8561 113.129 84.9921 113.129 83.3901V77.9001H110.609V83.7501C110.609 86.4861 112.283 87.9981 114.605 87.9981C115.847 87.9981 116.945 87.4581 117.575 86.6121V87.8721H120.113V77.9001ZM125.119 82.9041C125.119 80.9781 126.019 80.4021 127.513 80.4021H128.179V77.7561C126.793 77.7561 125.749 78.4221 125.119 79.4481V77.9001H122.599V87.8721H125.119V82.9041ZM128.815 77.9001L132.487 87.8721H135.547L139.237 77.9001H136.555L134.035 85.5501L131.515 77.9001H128.815ZM144.936 79.8081C146.232 79.8081 147.276 80.6361 147.312 81.9501H142.578C142.776 80.5821 143.73 79.8081 144.936 79.8081ZM149.67 84.7401H146.952C146.628 85.4061 146.034 85.9461 144.954 85.9461C143.694 85.9461 142.686 85.1181 142.56 83.6421H149.85C149.904 83.3181 149.922 82.9941 149.922 82.6701C149.922 79.7001 147.888 77.7381 145.008 77.7381C142.056 77.7381 140.004 79.7361 140.004 82.8861C140.004 86.0181 142.11 88.0341 145.008 88.0341C147.474 88.0341 149.13 86.5761 149.67 84.7401ZM156.01 84.8661L153.436 77.9001H150.61L154.606 87.6201L152.446 92.5881H155.128L161.302 77.9001H158.62L156.01 84.8661ZM175.175 75.2901V83.9301L169.469 75.2901H166.949V87.8721H169.469V79.2501L175.175 87.8721H177.695V75.2901H175.175ZM179.537 82.8501C179.537 85.9641 181.553 88.0341 184.073 88.0341C185.657 88.0341 186.791 87.2781 187.385 86.4141V87.8721H189.923V77.9001H187.385V79.3221C186.791 78.4941 185.693 77.7381 184.091 77.7381C181.553 77.7381 179.537 79.7361 179.537 82.8501ZM187.385 82.8861C187.385 84.7761 186.125 85.8201 184.739 85.8201C183.389 85.8201 182.111 84.7401 182.111 82.8501C182.111 80.9601 183.389 79.9521 184.739 79.9521C186.125 79.9521 187.385 80.9961 187.385 82.8861ZM206.335 87.8721H208.855V82.0221C208.855 79.2681 207.163 77.7561 204.769 77.7561C203.311 77.7561 201.997 78.5301 201.349 79.6641C200.665 78.4221 199.387 77.7561 197.839 77.7561C196.597 77.7561 195.535 78.2781 194.905 79.1061V77.9001H192.385V87.8721H194.905V82.3641C194.905 80.7801 195.787 79.9521 197.155 79.9521C198.487 79.9521 199.369 80.7801 199.369 82.3641V87.8721H201.889V82.3641C201.889 80.7801 202.771 79.9521 204.121 79.9521C205.453 79.9521 206.335 80.7801 206.335 82.3641V87.8721ZM215.53 79.8081C216.826 79.8081 217.87 80.6361 217.906 81.9501H213.172C213.37 80.5821 214.324 79.8081 215.53 79.8081ZM220.264 84.7401H217.546C217.222 85.4061 216.628 85.9461 215.548 85.9461C214.288 85.9461 213.28 85.1181 213.154 83.6421H220.444C220.498 83.3181 220.516 82.9941 220.516 82.6701C220.516 79.7001 218.482 77.7381 215.602 77.7381C212.65 77.7381 210.598 79.7361 210.598 82.8861C210.598 86.0181 212.704 88.0341 215.602 88.0341C218.068 88.0341 219.724 86.5761 220.264 84.7401Z" fill="#333333"/>
        <path d="M98.035 210.688H100.135V203.877L102.955 210.688H104.545L107.35 203.877V210.688H109.45V200.217H107.08L103.75 208.002L100.42 200.217H98.035V210.688ZM115.066 208.182L112.921 202.377H110.566L113.896 210.477L112.096 214.618H114.331L119.476 202.377H117.241L115.066 208.182ZM131.502 207.657C131.502 203.967 126.132 205.137 126.132 203.037C126.132 202.182 126.747 201.777 127.572 201.807C128.472 201.822 129.027 202.362 129.072 203.052H131.382C131.247 201.162 129.777 200.067 127.632 200.067C125.472 200.067 123.942 201.207 123.942 203.097C123.927 206.892 129.327 205.527 129.327 207.792C129.327 208.542 128.742 209.067 127.752 209.067C126.777 209.067 126.222 208.512 126.162 207.672H123.912C123.942 209.652 125.622 210.793 127.797 210.793C130.182 210.793 131.502 209.307 131.502 207.657ZM141.168 202.377H139.053V206.952C139.053 208.287 138.333 209.007 137.193 209.007C136.083 209.007 135.348 208.287 135.348 206.952V202.377H133.248V207.252C133.248 209.532 134.643 210.793 136.578 210.793C137.613 210.793 138.528 210.342 139.053 209.637V210.688H141.168V202.377ZM145.34 206.547C145.34 204.942 146.09 204.462 147.335 204.462H147.89V202.257C146.735 202.257 145.865 202.812 145.34 203.667V202.377H143.24V210.688H145.34V206.547ZM148.42 202.377L151.48 210.688H154.03L157.105 202.377H154.87L152.77 208.752L150.67 202.377H148.42ZM161.854 203.967C162.934 203.967 163.804 204.657 163.834 205.752H159.889C160.054 204.612 160.849 203.967 161.854 203.967ZM165.799 208.077H163.534C163.264 208.632 162.769 209.082 161.869 209.082C160.819 209.082 159.979 208.392 159.874 207.162H165.949C165.994 206.892 166.009 206.622 166.009 206.352C166.009 203.877 164.314 202.242 161.914 202.242C159.454 202.242 157.744 203.907 157.744 206.532C157.744 209.142 159.499 210.823 161.914 210.823C163.969 210.823 165.349 209.607 165.799 208.077ZM171.082 208.182L168.937 202.377H166.582L169.912 210.477L168.112 214.618H170.347L175.492 202.377H173.257L171.082 208.182Z" fill="#26C644"/>
        <path d="M206.648 210.688H208.448L204.713 200.247H202.733L198.998 210.688H200.783L201.533 208.557H205.898L206.648 210.688ZM205.418 207.162H202.013L203.723 202.317L205.418 207.162ZM215.937 210.688H217.632V205.812C217.632 203.502 216.177 202.287 214.242 202.287C213.252 202.287 212.337 202.692 211.782 203.367V202.423H210.072V210.688H211.782V206.067C211.782 204.552 212.607 203.772 213.867 203.772C215.112 203.772 215.937 204.552 215.937 206.067V210.688ZM219.243 206.517C219.243 209.067 220.968 210.823 223.113 210.823C224.493 210.823 225.483 210.162 226.008 209.457V210.688H227.733V202.423H226.008V203.622C225.498 202.947 224.538 202.287 223.143 202.287C220.968 202.287 219.243 203.967 219.243 206.517ZM226.008 206.547C226.008 208.332 224.793 209.337 223.503 209.337C222.228 209.337 220.998 208.302 220.998 206.517C220.998 204.732 222.228 203.772 223.503 203.772C224.793 203.772 226.008 204.777 226.008 206.547ZM229.979 210.688H231.689V199.587H229.979V210.688ZM237.19 208.722L234.865 202.423H232.96L236.215 210.552L234.535 214.573H236.305L241.375 202.423H239.605L237.19 208.722ZM247.93 202.423H242.2V203.817H245.965L242.2 209.292V210.688H247.93V209.292H244.18L247.93 203.817V202.423ZM253.206 203.727C254.481 203.727 255.486 204.537 255.516 205.812H250.941C251.121 204.507 252.051 203.727 253.206 203.727ZM257.076 208.227H255.231C254.916 208.872 254.331 209.382 253.281 209.382C252.021 209.382 251.046 208.557 250.926 207.192H257.241C257.286 206.907 257.301 206.637 257.301 206.352C257.301 203.922 255.636 202.287 253.281 202.287C250.836 202.287 249.156 203.952 249.156 206.547C249.156 209.142 250.911 210.823 253.281 210.823C255.306 210.823 256.611 209.667 257.076 208.227Z" fill="#333333"/>
        <path d="M297.434 200.262H294.029V210.688H297.434C300.779 210.688 302.969 208.722 302.969 205.512C302.969 202.287 300.779 200.262 297.434 200.262ZM295.739 209.292V201.657H297.434C299.894 201.657 301.214 203.127 301.214 205.512C301.214 207.882 299.894 209.292 297.434 209.292H295.739ZM308.144 203.727C309.419 203.727 310.424 204.537 310.454 205.812H305.879C306.059 204.507 306.989 203.727 308.144 203.727ZM312.014 208.227H310.169C309.854 208.872 309.269 209.382 308.219 209.382C306.959 209.382 305.984 208.557 305.864 207.192H312.179C312.224 206.907 312.239 206.637 312.239 206.352C312.239 203.922 310.574 202.287 308.219 202.287C305.774 202.287 304.094 203.952 304.094 206.547C304.094 209.142 305.849 210.823 308.219 210.823C310.244 210.823 311.549 209.667 312.014 208.227ZM320.087 208.377C319.997 205.392 315.332 206.322 315.332 204.657C315.332 204.102 315.812 203.727 316.727 203.727C317.657 203.727 318.212 204.222 318.272 204.942H319.982C319.892 203.292 318.662 202.287 316.787 202.287C314.837 202.287 313.607 203.352 313.607 204.672C313.607 207.702 318.407 206.772 318.407 208.392C318.407 208.962 317.882 209.382 316.892 209.382C315.947 209.382 315.302 208.827 315.242 208.152H313.472C313.547 209.652 314.942 210.823 316.922 210.823C318.872 210.823 320.087 209.772 320.087 208.377ZM321.935 210.688H323.645V202.423H321.935V210.688ZM322.805 201.327C323.405 201.327 323.885 200.847 323.885 200.232C323.885 199.617 323.405 199.137 322.805 199.137C322.19 199.137 321.71 199.617 321.71 200.232C321.71 200.847 322.19 201.327 322.805 201.327ZM325.32 206.517C325.32 209.067 327.045 210.823 329.22 210.823C330.57 210.823 331.56 210.147 332.085 209.442V210.823C332.085 212.473 331.095 213.283 329.775 213.283C328.59 213.283 327.675 212.698 327.42 211.843H325.725C325.935 213.673 327.57 214.768 329.775 214.768C332.355 214.768 333.81 213.073 333.81 210.823V202.423H332.085V203.622C331.575 202.917 330.57 202.287 329.22 202.287C327.045 202.287 325.32 203.967 325.32 206.517ZM332.085 206.547C332.085 208.332 330.87 209.337 329.58 209.337C328.305 209.337 327.075 208.302 327.075 206.517C327.075 204.732 328.305 203.772 329.58 203.772C330.87 203.772 332.085 204.777 332.085 206.547ZM341.921 210.688H343.616V205.812C343.616 203.502 342.161 202.287 340.226 202.287C339.236 202.287 338.321 202.692 337.766 203.367V202.423H336.056V210.688H337.766V206.067C337.766 204.552 338.591 203.772 339.851 203.772C341.096 203.772 341.921 204.552 341.921 206.067V210.688Z" fill="#333333"/>
    </g>
    <defs>
        <clipPath id="clip0">
            <rect width="596" height="438" fill="white"/>
        </clipPath>
    </defs>
</svg>
