<svg width="59" height="59" viewBox="0 0 59 59" fill="none" xmlns="http://www.w3.org/2000/svg">
    <g clip-path="url(#clip0)">
        <path d="M11.2804 14.5826V53.47M49.6194 14.5826H8.88379C6.97728 14.5826 5.14887 15.3508 3.80077 16.7181C2.45267 18.0855 1.69531 19.9401 1.69531 21.8739V46.1787C1.69531 48.1125 2.45267 49.9671 3.80077 51.3344C5.14887 52.7018 6.97728 53.47 8.88379 53.47H49.6194C51.5259 53.47 53.3543 52.7018 54.7024 51.3344C56.0505 49.9671 56.8079 48.1125 56.8079 46.1787V21.8739C56.8079 19.9401 56.0505 18.0855 54.7024 16.7181C53.3543 15.3508 51.5259 14.5826 49.6194 14.5826ZM20.8655 14.5826V9.72219C20.8689 8.43407 21.3749 7.19967 22.2727 6.28869C23.1706 5.37771 24.3874 4.8642 25.6574 4.86035H32.8458C34.1158 4.8642 35.3326 5.37771 36.2305 6.28869C37.1284 7.19967 37.6343 8.43407 37.6377 9.72219V14.5826H20.8655ZM47.2228 14.5826V53.47V14.5826ZM40.0343 14.5826V53.47V14.5826ZM18.4689 14.5826V53.47V14.5826Z"
              stroke="#00CCB3" stroke-width="2.5" stroke-linecap="round" stroke-linejoin="round"/>
    </g>
    <defs>
        <clipPath id="clip0">
            <rect width="57.5078" height="58.3304" fill="white" transform="translate(0.498047)"/>
        </clipPath>
    </defs>
</svg>
