<svg width="33" height="32" viewBox="0 0 33 32" fill="none" xmlns="http://www.w3.org/2000/svg">
    <path d="M32.8555 15.9575C32.8555 7.43531 25.6134 0.52832 16.6777 0.52832C7.74206 0.52832 0.5 7.43531 0.5 15.9575C0.5 24.4798 7.74206 31.3868 16.6777 31.3868C16.7725 31.3868 16.8673 31.3868 16.9621 31.3807V19.3749H13.4864V15.5115H16.9621V12.6668C16.9621 9.36999 19.0728 7.57393 22.1567 7.57393C23.6354 7.57393 24.9056 7.67639 25.2722 7.72461V11.1721H23.1488C21.4742 11.1721 21.1456 11.9315 21.1456 13.0465V15.5055H25.1584L24.6339 19.3689H21.1456V30.7901C27.9074 28.9398 32.8555 23.0032 32.8555 15.9575Z" fill="#CFCFCF"/>
</svg>
