<svg width="54" height="56" viewBox="0 0 54 56" fill="none" xmlns="http://www.w3.org/2000/svg">
    <g clip-path="url(#clip0)">
        <path d="M44.5593 6.76602L36.1026 16.9986M1.13477 54.8336H52.8852H1.13477ZM10.1258 44.3336C10.1272 44.0269 10.0092 43.7312 9.79608 43.5076C9.694 43.4003 9.57077 43.3147 9.43394 43.256C9.29711 43.1972 9.14955 43.1666 9.00029 43.166H4.50124C4.35188 43.1668 4.20426 43.1976 4.06742 43.2566C3.93058 43.3156 3.80741 43.4015 3.70545 43.509C3.49264 43.7323 3.37467 44.0273 3.37577 44.3336V54.8336H10.1258V44.3336ZM23.6258 32.666C23.6269 32.3597 23.5089 32.0647 23.2961 31.8414C23.194 31.7341 23.0708 31.6485 22.9339 31.5898C22.7971 31.531 22.6495 31.5004 22.5003 31.4998H18.0012C17.852 31.5004 17.7044 31.531 17.5676 31.5898C17.4308 31.6485 17.3075 31.7341 17.2054 31.8414C16.9923 32.065 16.8743 32.3607 16.8758 32.6674V54.8336H23.6258V32.666ZM37.1258 37.3336C37.1272 37.0269 37.0092 36.7312 36.7961 36.5076C36.694 36.4003 36.5708 36.3147 36.4339 36.256C36.2971 36.1972 36.1495 36.1666 36.0003 36.166H31.5012C31.3519 36.1668 31.2043 36.1976 31.0674 36.2566C30.9306 36.3156 30.8074 36.4015 30.7054 36.509C30.4926 36.7323 30.3747 37.0273 30.3758 37.3336V54.8336H37.1258V37.3336V37.3336ZM50.6258 20.9998C50.6272 20.6931 50.5092 20.3974 50.2961 20.1738C50.1939 20.0668 50.0706 19.9814 49.9338 19.9229C49.7969 19.8644 49.6494 19.834 49.5003 19.8336H45.0012C44.852 19.8342 44.7044 19.8648 44.5676 19.9236C44.4308 19.9823 44.3075 20.0679 44.2054 20.1752C43.9926 20.3985 43.8747 20.6935 43.8758 20.9998V54.8336H50.6258V20.9998ZM6.75929 30.3336C8.62371 30.3336 10.1343 28.7656 10.1343 26.8336C10.1343 24.9002 8.62371 23.3336 6.75929 23.3336C4.89629 23.3336 3.38429 24.9002 3.38429 26.8336C3.38429 28.7656 4.89629 30.3336 6.75929 30.3336ZM20.2593 18.666C22.1237 18.666 23.6343 17.0994 23.6343 15.166C23.6343 13.234 22.1237 11.666 20.2593 11.666C18.3963 11.666 16.8843 13.234 16.8843 15.166C16.8843 17.0994 18.3963 18.666 20.2593 18.666ZM33.7593 23.3336C35.6237 23.3336 37.1343 21.7656 37.1343 19.8336C37.1343 17.9002 35.6237 16.3336 33.7593 16.3336C31.8963 16.3336 30.3843 17.9002 30.3843 19.8336C30.3843 21.7656 31.8963 23.3336 33.7593 23.3336ZM47.2593 8.16602C49.1237 8.16602 50.6343 6.59942 50.6343 4.66602C50.6343 2.73402 49.1237 1.16602 47.2593 1.16602C45.3963 1.16602 43.8843 2.73402 43.8843 4.66602C43.8843 6.59942 45.3963 8.16602 47.2593 8.16602ZM9.59713 24.3836L17.6687 17.406L9.59713 24.3836ZM23.4623 16.272L30.5577 18.7248L23.4623 16.272Z"
              stroke="#00CCB3" stroke-width="2.5" stroke-linecap="round" stroke-linejoin="round"/>
    </g>
    <defs>
        <clipPath id="clip0">
            <rect width="54" height="56" fill="white"/>
        </clipPath>
    </defs>
</svg>
