<svg width="33" height="32" viewBox="0 0 33 32" fill="none" xmlns="http://www.w3.org/2000/svg">
    <path d="M19.7931 15.9958C19.7931 17.6228 18.4102 18.9418 16.7042 18.9418C14.9982 18.9418 13.6152 17.6228 13.6152 15.9958C13.6152 14.3687 14.9982 13.0498 16.7042 13.0498C18.4102 13.0498 19.7931 14.3687 19.7931 15.9958Z" fill="#CFCFCF"/>
    <path d="M23.9285 10.7831C23.78 10.3994 23.5431 10.052 23.2353 9.76691C22.9363 9.47334 22.5724 9.24742 22.1698 9.1058C21.8432 8.98485 21.3527 8.84089 20.4492 8.80167C19.4719 8.75916 19.1789 8.75 16.7046 8.75C14.2301 8.75 13.937 8.75892 12.9599 8.80143C12.0565 8.84089 11.5657 8.98485 11.2394 9.1058C10.8368 9.24742 10.4726 9.47334 10.1739 9.76691C9.8661 10.052 9.62922 10.3991 9.48048 10.7831C9.35367 11.0945 9.20272 11.5626 9.1616 12.4243C9.11703 13.3562 9.10742 13.6356 9.10742 15.9957C9.10742 18.3554 9.11703 18.6349 9.1616 19.567C9.20272 20.4287 9.35367 20.8965 9.48048 21.208C9.62922 21.5919 9.86586 21.9391 10.1737 22.2242C10.4726 22.5177 10.8366 22.7437 11.2392 22.8853C11.5657 23.0065 12.0565 23.1504 12.9599 23.1896C13.937 23.2321 14.2298 23.2411 16.7043 23.2411C19.1791 23.2411 19.4721 23.2321 20.449 23.1896C21.3525 23.1504 21.8432 23.0065 22.1698 22.8853C22.9779 22.5879 23.6167 21.9787 23.9285 21.208C24.0553 20.8965 24.2062 20.4287 24.2476 19.567C24.2922 18.6349 24.3015 18.3554 24.3015 15.9957C24.3015 13.6356 24.2922 13.3562 24.2476 12.4243C24.2065 11.5626 24.0555 11.0945 23.9285 10.7831ZM16.7046 20.5337C14.0764 20.5337 11.9459 18.502 11.9459 15.9954C11.9459 13.4888 14.0764 11.4571 16.7046 11.4571C19.3325 11.4571 21.463 13.4888 21.463 15.9954C21.463 18.502 19.3325 20.5337 16.7046 20.5337ZM21.6512 12.3383C21.037 12.3383 20.5391 11.8634 20.5391 11.2777C20.5391 10.692 21.037 10.2171 21.6512 10.2171C22.2653 10.2171 22.7632 10.692 22.7632 11.2777C22.763 11.8634 22.2653 12.3383 21.6512 12.3383Z" fill="#CFCFCF"/>
    <path d="M16.7043 0.604492C7.79297 0.604492 0.566406 7.49669 0.566406 15.9958C0.566406 24.4948 7.79297 31.387 16.7043 31.387C25.6157 31.387 32.8423 24.4948 32.8423 15.9958C32.8423 7.49669 25.6157 0.604492 16.7043 0.604492ZM25.9152 19.6395C25.8703 20.5803 25.7135 21.2226 25.4845 21.7849C25.0031 22.972 24.0191 23.9105 22.7743 24.3696C22.185 24.5881 21.5113 24.7374 20.5251 24.7804C19.5369 24.8234 19.2212 24.8337 16.7046 24.8337C14.1877 24.8337 13.8723 24.8234 12.8838 24.7804C11.8976 24.7374 11.2239 24.5881 10.6346 24.3696C10.0161 24.1477 9.45611 23.7999 8.99317 23.3501C8.52186 22.9089 8.15717 22.3746 7.92447 21.7849C7.69546 21.2229 7.5386 20.5803 7.49378 19.6397C7.44823 18.697 7.43764 18.3959 7.43764 15.9958C7.43764 13.5956 7.44823 13.2945 7.49354 12.352C7.53835 11.4112 7.69496 10.7689 7.92397 10.2067C8.15667 9.61694 8.52161 9.08265 8.99317 8.64136C9.45587 8.19162 10.0161 7.84381 10.6344 7.62187C11.2239 7.40346 11.8974 7.25409 12.8838 7.21111C13.872 7.16814 14.1877 7.1578 16.7043 7.1578C19.221 7.1578 19.5367 7.16814 20.5248 7.21135C21.5113 7.25409 22.1848 7.40346 22.7743 7.62164C23.3926 7.84357 23.9528 8.19162 24.4158 8.64136C24.8871 9.08288 25.252 9.61694 25.4845 10.2067C25.7137 10.7689 25.8703 11.4112 25.9154 12.352C25.9605 13.2945 25.9711 13.5956 25.9711 15.9958C25.9711 18.3959 25.9605 18.697 25.9152 19.6395Z" fill="#CFCFCF"/>
</svg>
