<svg width="34" height="32" viewBox="0 0 34 32" fill="none" xmlns="http://www.w3.org/2000/svg">
    <path d="M33.1514 31.5987V31.5974H33.1595V20.1921C33.1595 14.6125 31.9001 10.3145 25.0608 10.3145C21.7729 10.3145 19.5665 12.0352 18.6658 13.6666H18.5706V10.8354H12.0859V31.5974H18.8383V21.3168C18.8383 18.6099 19.3763 15.9925 22.8911 15.9925C26.3542 15.9925 26.4058 19.0816 26.4058 21.4904V31.5987H33.1514Z" fill="#CFCFCF"/>
    <path d="M1.08984 10.8364H7.85034V31.5985H1.08984V10.8364Z" fill="#CFCFCF"/>
    <path d="M4.46832 0.5C2.30673 0.5 0.552734 2.17283 0.552734 4.23439C0.552734 6.29595 2.30673 8.00377 4.46832 8.00377C6.62991 8.00377 8.38391 6.29595 8.38391 4.23439C8.38255 2.17283 6.62855 0.5 4.46832 0.5V0.5Z" fill="#CFCFCF"/>
</svg>
