<svg width="88" height="41" viewBox="0 0 88 41" fill="none" xmlns="http://www.w3.org/2000/svg">
    <g clip-path="url(#clip0)">
        <path d="M0 24.6172H2.63499V37.2743H0V24.6172Z" fill="#212529"/>
        <path d="M4.16409 32.9374C4.15531 30.3991 6.25452 28.3426 8.84559 28.334C11.4367 28.3254 13.5359 30.3819 13.5447 32.9202C13.5534 35.4585 11.4542 37.5149 8.86316 37.5235H8.85438C6.28965 37.5493 4.19044 35.5445 4.16409 33.032C4.16409 32.9976 4.16409 32.9718 4.16409 32.9374ZM10.8921 32.9374C10.8658 31.836 9.92594 30.967 8.80168 30.9928C7.67742 31.0186 6.7903 31.9393 6.81665 33.0406C6.843 34.1248 7.74768 34.9852 8.85438 34.9852C9.95229 35.011 10.8658 34.1678 10.8921 33.0922C10.8921 33.0406 10.8921 32.989 10.8921 32.9374Z" fill="#212529"/>
        <path d="M24.1372 28.6014V36.8444C24.1372 39.7613 21.8096 40.9918 19.4557 40.9918C17.7693 41.1122 16.1532 40.3034 15.2661 38.8923L17.5322 37.6102C17.9011 38.333 18.6828 38.7718 19.5084 38.703C20.4658 38.8579 21.3705 38.2297 21.5286 37.2919C21.5549 37.1456 21.5549 36.9993 21.5461 36.8444V36.0442C20.9138 36.8014 19.9564 37.223 18.9639 37.1714C16.4782 37.1714 14.4668 35.1924 14.4668 32.7659C14.4668 30.3309 16.4782 28.3605 18.9639 28.3605C19.9564 28.3175 20.9138 28.7305 21.5461 29.4877V28.6272L24.1372 28.6014ZM21.5461 32.7659C21.5988 31.6043 20.6766 30.632 19.4909 30.5804C18.3051 30.5288 17.3126 31.4323 17.2599 32.5939C17.2072 33.7554 18.1294 34.7277 19.3152 34.7794C19.3415 34.7794 19.3767 34.7794 19.403 34.7794C20.5097 34.8568 21.4671 34.0394 21.5461 32.9638C21.5461 32.895 21.5461 32.8348 21.5461 32.7659Z" fill="#212529"/>
        <path d="M25.6563 32.9374C25.6475 30.3991 27.7467 28.3426 30.3378 28.334C32.9289 28.3254 35.0281 30.3819 35.0369 32.9202C35.0456 35.4585 32.9464 37.5149 30.3554 37.5235H30.3466C27.7818 37.5493 25.6826 35.5445 25.6563 33.032C25.6563 32.9976 25.6563 32.9718 25.6563 32.9374ZM32.3843 32.9374C32.3579 31.836 31.4181 30.967 30.2939 30.9928C29.1696 31.0186 28.2825 31.9393 28.3088 33.0406C28.3352 34.1248 29.2399 34.9852 30.3466 34.9852C31.4445 35.0024 32.3492 34.1506 32.3667 33.075C32.3667 33.032 32.3667 32.9804 32.3667 32.9374H32.3843Z" fill="#212529"/>
        <path d="M36.2578 26.2779C36.2578 25.4089 36.9693 24.7119 37.8564 24.7119C38.7435 24.7119 39.4549 25.4089 39.4549 26.2779C39.4549 27.147 38.7435 27.8439 37.8564 27.8439C36.978 27.8353 36.2666 27.1384 36.2578 26.2779ZM36.5301 28.6011H39.1651V37.2743H36.5301V28.6011Z" fill="#212529"/>
        <path d="M50.653 32.9372C50.7847 35.3379 48.9051 37.3943 46.4545 37.5234C46.4458 37.5234 46.437 37.5234 46.4282 37.5234C45.4357 37.5664 44.4695 37.1792 43.7932 36.465V40.7672H41.1582V28.6006H43.7932V29.418C44.4695 28.7039 45.4357 28.3167 46.4282 28.3597C48.8787 28.4715 50.7759 30.5194 50.653 32.92C50.653 32.92 50.653 32.9286 50.653 32.9372ZM48.018 32.9372C47.9916 31.7928 47.0255 30.898 45.8573 30.9238C44.6891 30.9496 43.7756 31.8961 43.802 33.0405C43.8283 34.1418 44.733 35.0281 45.8573 35.0539C46.9728 35.1228 47.9301 34.2967 48.0004 33.204C48.0092 33.1179 48.0092 33.0233 48.0004 32.9372H48.018Z" fill="#212529"/>
        <path d="M58.8574 34.6761C58.8574 36.6723 57.1007 37.5241 55.1684 37.5241C53.5874 37.6618 52.0855 36.8444 51.3652 35.4591L53.6665 34.177C53.8597 34.8223 54.4833 35.2439 55.1684 35.2009C55.8096 35.2009 56.1258 35.003 56.1258 34.6588C56.1258 33.7038 51.7341 34.2114 51.7341 31.2171C51.7341 29.3241 53.3678 28.369 55.2475 28.369C56.6616 28.326 57.9879 29.0402 58.7081 30.2276L56.3981 31.415C56.1873 30.9503 55.7218 30.6492 55.2035 30.6492C54.7468 30.6492 54.4657 30.8213 54.4657 31.1396C54.5009 32.1292 58.8574 31.4666 58.8574 34.6761Z" fill="#212529"/>
        <path d="M68.554 28.6006V37.2738H65.919V36.465C65.2954 37.1964 64.3556 37.5836 63.3894 37.5234C61.6328 37.5234 60.0781 36.2757 60.0781 33.9267V28.6006H62.7131V33.5481C62.6253 34.3311 63.205 35.0367 64.0043 35.1227C64.1009 35.1313 64.2063 35.1313 64.3029 35.1227C65.2691 35.1227 65.9454 34.572 65.9454 33.3416V28.6006H68.554Z" fill="#212529"/>
        <path d="M83.7833 31.9571V37.2747H81.1484V32.1808C81.1484 31.3204 80.718 30.7525 79.8748 30.7525C79.0316 30.7525 78.487 31.3634 78.487 32.3874V37.2747H75.852V32.1808C75.852 31.3204 75.4304 30.7525 74.5784 30.7525C73.7265 30.7525 73.1994 31.3634 73.1994 32.3874V37.2747H70.5645V28.6014H73.1994V29.4016C73.7616 28.6875 74.6487 28.2917 75.5709 28.3605C76.4932 28.3175 77.3715 28.7477 77.8897 29.5049C78.487 28.7133 79.4532 28.283 80.4545 28.3605C82.4571 28.3605 83.7833 29.7888 83.7833 31.9571Z" fill="#212529"/>
        <path d="M86.0319 28.5491C87.1185 28.5491 87.9994 27.6862 87.9994 26.6217C87.9994 25.5573 87.1185 24.6943 86.0319 24.6943C84.9453 24.6943 84.0645 25.5573 84.0645 26.6217C84.0645 27.6862 84.9453 28.5491 86.0319 28.5491Z" fill="#212529"/>
        <path d="M29.8192 18.052C34.9077 18.052 39.0329 14.011 39.0329 9.02602C39.0329 4.04109 34.9077 0 29.8192 0C24.7306 0 20.6055 4.04109 20.6055 9.02602C20.6055 14.011 24.7306 18.052 29.8192 18.052Z" fill="#212529"/>
        <path d="M50.4168 18.052C55.5054 18.052 59.6305 14.011 59.6305 9.02602C59.6305 4.04109 55.5054 0 50.4168 0C45.3282 0 41.2031 4.04109 41.2031 9.02602C41.2031 14.011 45.3282 18.052 50.4168 18.052Z" fill="#26C644"/>
        <path d="M18.4342 0H0.015625V18.0434H18.4342V0Z" fill="#212529"/>
    </g>
    <defs>
        <clipPath id="clip0">
            <rect width="88" height="41" fill="white"/>
        </clipPath>
    </defs>
</svg>
