<svg width="93" height="93" viewBox="0 0 93 93" fill="none" xmlns="http://www.w3.org/2000/svg">
    <g clip-path="url(#clip0)">
        <path d="M46.5 91.5469C71.3787 91.5469 91.5469 71.3787 91.5469 46.5C91.5469 21.6213 71.3787 1.45312 46.5 1.45312C21.6213 1.45312 1.45312 21.6213 1.45312 46.5C1.45312 71.3787 21.6213 91.5469 46.5 91.5469Z" fill="black" fill-opacity="0.501961"/>
        <path fill-rule="evenodd" clip-rule="evenodd" d="M46.5 93.0229C20.8364 93.0229 0 72.1866 0 46.5229C0 20.8593 20.8364 0.0229492 46.5 0.0229492C72.1636 0.0229492 93 20.8593 93 46.5229C93 72.1866 72.1636 93.0229 46.5 93.0229ZM46.5 90.1167C22.4406 90.1167 2.90625 70.5838 2.90625 46.5229C2.90625 22.4636 22.4406 2.9292 46.5 2.9292C70.5608 2.9292 90.0938 22.4636 90.0938 46.5229C90.0938 70.5838 70.5608 90.1167 46.5 90.1167ZM59.2119 45.2965C59.6246 45.5726 59.8658 46.0158 59.8658 46.5055C59.8658 46.9952 59.6246 47.4384 59.2119 47.7145L41.4969 59.5371C41.0479 59.8278 40.4666 59.8597 39.9944 59.5996C39.5221 59.354 39.2315 58.8643 39.2315 58.3296V34.6974C39.2315 34.1467 39.5221 33.657 39.9944 33.4129C40.4666 33.1527 41.0479 33.1833 41.4969 33.4884L59.2119 45.2965Z" fill="#00CCB3"/>
    </g>
    <defs>
        <clipPath id="clip0">
            <rect width="93" height="93" fill="white"/>
        </clipPath>
    </defs>
</svg>
