<svg width="55" height="37" viewBox="0 0 55 37" fill="none" xmlns="http://www.w3.org/2000/svg">
    <path d="M51.884 4.54582C53.0967 4.65307 53.083 6.05832 51.3656 7.70695C50.8294 8.23082 51.1662 9.3487 50.1034 10.0348C50.1034 10.0348 48.5372 11.2778 47.968 11.9571C46.9216 13.2056 46.8212 14.3441 45.0076 18.3756C43.5625 21.6508 45.1891 20.6292 46.4692 21.0266C47.3974 21.3153 47.4386 21.3373 47.7934 21.4625C52.115 22.9887 56.9 26.7452 54.227 31.9826C53.556 33.2957 51.9294 33.7357 50.4829 34.4796C48.8631 35.2867 46.3359 36.0897 46.3359 36.0897C42.2466 37.1705 35.9821 35.0323 33.36 32.523C31.4089 30.6543 32.4429 25.131 32.997 24.4242C33.0506 23.8673 32.9819 23.5415 33.129 22.6285C34.0406 18.685 37.0134 14.6535 40.0727 10.8585C41.1315 9.61133 42.2191 9.30058 43.2517 8.4687C44.9072 7.13357 47.9721 4.83732 49.2289 4.91432C50.2849 4.97757 51.2982 4.49357 51.884 4.54582ZM21.469 0.765948C22.4054 1.01345 20.028 4.23232 16.8105 7.17757C15.7229 8.18407 14.8264 9.38033 13.9642 10.8708C15.4011 12.5841 13.3084 13.6676 13.3207 17.0858C15.4382 17.4612 17.5104 18.2147 19.2085 19.5416C20.3979 20.005 26.9552 24.1822 22.1001 29.2821C20.105 35.2028 10.9131 37.1526 4.47261 33.8251C2.30699 32.7058 0.806862 30.4055 0.900362 27.903C0.900362 27.903 -1.37664 23.1922 1.31149 20.6237C1.31149 20.6237 2.73736 17.7087 3.42761 15.4138C4.14536 13.0681 5.71699 11.1376 7.71761 9.52058C7.71761 9.52058 10.2242 6.18482 11.5319 4.56507C13.7676 1.85082 18.9871 0.110072 21.469 0.765948ZM50.399 31.9881C45.6044 33.3576 44.294 31.1438 43.3177 33.7C43.3177 33.7 46.912 33.9268 50.4265 31.9798C50.4182 31.9826 50.4086 31.9853 50.399 31.9881ZM12.1671 30.6213C11.2445 32.402 8.52336 32.8131 7.18961 31.1645C5.71286 31.4573 4.48911 30.8991 4.01474 30.7025C8.22499 35.1836 16.1931 33.3851 18.6695 30.8345C18.6695 30.8345 15.0422 32.0211 12.1671 30.6213ZM50.751 27.914C50.5186 27.7641 49.6441 29.7688 49.6276 30.0947C49.6097 30.4302 52.3377 28.948 50.751 27.914ZM39.9036 24.8408C38.2522 29.3825 42.3112 30.0975 42.5862 30.0108C40.3395 28.8338 39.8225 26.7397 40.8015 25.241L39.9036 24.8408ZM4.21549 24.5493C3.54449 25.5875 3.18424 27.243 3.18424 27.243C3.96386 28.222 5.58086 28.9095 5.58086 28.9095C6.24774 27.8191 6.01949 25.1681 4.21549 24.5493ZM37.0642 27.386C37.0642 27.386 37.6032 25.4376 37.6404 24.7226C36.847 25.263 36.484 26.3602 37.0642 27.386ZM46.9574 24.3513C45.7529 24.3995 47.3341 25.7923 46.527 27.8878C47.2227 27.2595 47.9749 26.7383 48.7916 26.3011C49.0185 25.2588 47.9762 24.3348 46.9574 24.3513ZM15.5427 20.7818C16.8174 21.1036 20.4515 22.5391 18.7272 26.4001C20.9712 24.4448 19.7076 21.1957 15.5427 20.7818Z" fill="#00CCB3"/>
</svg>
