<svg width="132" height="21" viewBox="0 0 132 21" fill="none" xmlns="http://www.w3.org/2000/svg">
    <path d="M121.38 0.893555L124.478 7.47715L131.404 8.53288L126.392 13.6575L127.576 20.8936L121.38 17.4771L115.185 20.8936L116.368 13.6575L111.356 8.53288L118.283 7.47715L121.38 0.893555ZM10.0807 0.893555L13.1783 6.97072L20.1049 7.94524L15.0928 12.6756L16.2759 19.3551L10.0807 16.2015L3.8855 19.3551L5.06866 12.6756L0.0566406 7.94524L6.98309 6.97072L10.0807 0.893555ZM38.0807 0.893555L41.1783 6.97072L48.1049 7.94524L43.0928 12.6756L44.2759 19.3551L38.0807 16.2015L31.8855 19.3551L33.0687 12.6756L28.0566 7.94524L34.9831 6.97072L38.0807 0.893555ZM65.8639 0.893555L68.9615 6.97072L75.8879 7.94524L70.8759 12.6756L72.0591 19.3551L65.8639 16.2015L59.6686 19.3551L60.8518 12.6756L55.8398 7.94524L62.7662 6.97072L65.8639 0.893555ZM93.6221 0.893555L96.7197 6.97072L103.646 7.94524L98.6341 12.6756L99.8173 19.3551L93.6221 16.2015L87.4268 19.3551L88.61 12.6756L83.598 7.94524L90.5245 6.97072L93.6221 0.893555Z"
          fill="#FFBC00"/>
</svg>
