<svg width="54" height="56" viewBox="0 0 54 56" fill="none" xmlns="http://www.w3.org/2000/svg">
    <g clip-path="url(#clip0)">
        <path d="M8.87407 31.4998H23.4995M24.625 43.166H3.24955C2.65271 43.166 2.08002 42.921 1.65797 42.4828C1.23286 42.0361 0.997439 41.446 1.00002 40.8336V3.49982C1.00002 2.88102 1.23592 2.28742 1.65797 1.85062C2.08002 1.41242 2.65271 1.16602 3.24955 1.16602H36.9995C37.5964 1.16602 38.1691 1.41242 38.5911 1.85062C39.0118 2.28742 39.2491 2.88102 39.2491 3.49982V26.8336L24.625 43.166ZM35.1991 52.0336L25.7491 54.8336L28.4491 45.0336L44.6022 28.2826C45.0403 27.8261 45.5671 27.461 46.1511 27.2088C46.7271 26.9612 47.3488 26.8334 47.9772 26.8334C48.6056 26.8334 49.2273 26.9612 49.8032 27.2088C50.383 27.458 50.9088 27.822 51.3522 28.2826C51.7955 28.7418 52.148 29.2878 52.3867 29.8884C52.8727 31.1058 52.8727 32.4594 52.3867 33.6768C52.1499 34.2726 51.7986 34.8179 51.3522 35.2826L35.1991 52.0336ZM42.5772 30.3826L49.3272 37.3826L42.5772 30.3826ZM28.4491 45.0336L35.1991 52.0336L28.4491 45.0336ZM13.3745 10.4998H29.1241H13.3745ZM8.87407 17.4998H29.1241H8.87407ZM8.87407 24.4998H29.1241H8.87407Z" stroke="#00CCB3" stroke-width="2.5" stroke-linecap="round" stroke-linejoin="round"/>
    </g>
    <defs>
        <clipPath id="clip0">
            <rect width="54" height="56" fill="white"/>
        </clipPath>
    </defs>
</svg>
