<svg xmlns="http://www.w3.org/2000/svg" width="17" height="14" fill="none" viewBox="0 0 17 14">
    <path fill="#272727" fill-rule="evenodd" d="M5.57 14c6.038 0 9.34-5.387 9.34-10.058 0-.153 0-.305-.01-.457.643-.5 1.197-1.12 1.638-1.83-.598.286-1.234.474-1.885.557.685-.442 1.198-1.137 1.444-1.956-.645.412-1.35.702-2.085.858C12.769-.309 10.69-.378 9.367.961c-.852.863-1.214 2.15-.95 3.378C5.779 4.196 3.32 2.853 1.653.646.78 2.26 1.226 4.326 2.669 5.364c-.523-.017-1.034-.168-1.49-.442v.045c0 1.682 1.102 3.131 2.633 3.465-.483.142-.99.162-1.482.06.43 1.44 1.663 2.427 3.067 2.455-1.163.984-2.599 1.518-4.077 1.516-.26 0-.522-.017-.782-.05C2.04 13.45 3.786 14 5.57 13.997" clip-rule="evenodd"/>
</svg>
