<svg width="34" height="26" viewBox="0 0 34 26" fill="none" xmlns="http://www.w3.org/2000/svg">
    <path d="M33.2281 3.49324C32.0249 3.99665 30.7427 4.33032 29.406 4.49233C30.7811 3.70926 31.8307 2.47872 32.3242 0.995517C31.042 1.72458 29.6264 2.23956 28.1178 2.52694C26.9003 1.29062 25.1652 0.524902 23.2723 0.524902C19.5998 0.524902 16.6431 3.36788 16.6431 6.85312C16.6431 7.3546 16.6876 7.83678 16.7968 8.29582C11.282 8.0393 6.40213 5.51843 3.12395 1.67829C2.55164 2.62531 2.21593 3.70926 2.21593 4.87616C2.21593 7.06721 3.39899 9.00946 5.16245 10.1339C4.09669 10.1146 3.05115 9.81953 2.16538 9.35471C2.16538 9.37399 2.16538 9.39907 2.16538 9.42414C2.16538 12.4986 4.46475 15.0522 7.48002 15.6405C6.94006 15.7813 6.35157 15.8488 5.74083 15.8488C5.31614 15.8488 4.88741 15.8257 4.48497 15.7408C5.34446 18.2462 7.78337 20.0882 10.6834 20.148C8.42647 21.8318 5.56084 22.8463 2.45861 22.8463C1.91461 22.8463 1.39285 22.8231 0.871094 22.7595C3.80952 24.5667 7.29195 25.5986 11.0474 25.5986C23.2541 25.5986 29.9277 15.9549 29.9277 7.59569C29.9277 7.31602 29.9176 7.046 29.9035 6.7779C31.22 5.88682 32.3262 4.77393 33.2281 3.49324Z" fill="#CFCFCF"/>
</svg>
